M48
;Layer_Color=9474304
;FILE_FORMAT=2:5
INCH,LZ
;TYPE=PLATED
T01F00S00C0.02800
T02F00S00C0.03150
T03F00S00C0.04331
T04F00S00C0.11024
T05F00S00C0.11800
T06F00S00C0.13780
%
T01
X02552Y00858
X01563Y00859
X01466Y00874
X015135Y0111759
X01566Y01083
X01363Y01076
X01266Y01283
X01006Y01292
X00929Y01387
X00708Y01577
X013085Y015355
X01364Y01476
X01465Y01491
X01729Y01367
X01853Y01272
X0176Y01733
X01365Y01817
X01363Y02199
X01265Y02198
X01464Y02191
X01563Y02187
X01036Y00918
X0097Y00882
X00733Y00736
X01218Y02382
X01315
X01413Y02387
X01512Y02389
X02146Y02385
X02263Y02384
X02384Y02347
T02
X0020757Y0249572
Y0259415
Y0269257
T03
X00525Y002
Y003
Y004
Y005
Y006
Y007
X00625
Y006
Y005
Y004
Y003
Y002
X0081299Y0068694
X02925Y007
X03025
Y006
Y005
Y004
Y003
Y002
X02925
Y003
Y004
Y005
Y006
Y008
X03025
Y009
Y01
Y011
Y012
Y013
Y014
Y015
Y016
Y017
Y018
Y019
Y02
Y021
X02925
Y02
Y019
Y018
Y017
Y016
Y015
Y014
Y013
Y012
Y011
Y01
Y009
X02727Y00972
Y01072
Y01172
Y01272
Y01372
Y01472
Y01572
Y01672
Y01772
Y01872
Y01972
Y02072
X02127Y02072
Y01972
Y01872
Y01772
Y01672
Y01572
Y01472
Y01372
Y01272
Y01172
Y01072
Y00972
X0081299Y0098694
Y0088694
Y0078694
X00625Y008
Y009
Y01
Y011
Y012
Y013
Y014
Y015
Y016
Y017
Y018
Y019
Y02
Y021
X00813Y0208695
Y0218695
Y0198695
Y0188695
X0081299Y0178695
Y0168695
Y0158695
Y0148695
X0081299Y0138694
Y0128694
Y0118694
Y0108694
X00525Y011
Y012
Y013
Y014
Y015
Y016
Y017
Y018
Y019
Y02
Y021
Y01
Y009
Y008
X00813Y0228695
Y0238695
Y0248695
Y0258695
T04
X00813Y00259
X0276969
X00813Y0301491
X0276969
T05
X03017Y02467
X03267
X03142Y02667
T06
X002Y002
X0335
X002Y0299213
X0335
M30
