G04*
G04 #@! TF.GenerationSoftware,Altium Limited,Altium Designer,24.2.2 (26)*
G04*
G04 Layer_Color=8388736*
%FSLAX25Y25*%
%MOIN*%
G70*
G04*
G04 #@! TF.SameCoordinates,39AFF50E-F897-457A-A01D-6F320B20273F*
G04*
G04*
G04 #@! TF.FilePolarity,Negative*
G04*
G01*
G75*
%ADD15R,0.04724X0.05906*%
%ADD16R,0.05512X0.03347*%
%ADD17O,0.03347X0.09055*%
%ADD18R,0.07795X0.13189*%
%ADD19R,0.05906X0.04724*%
%ADD20R,0.07874X0.09055*%
%ADD21C,0.05512*%
%ADD22R,0.07480X0.07480*%
%ADD23C,0.07480*%
%ADD24C,0.20472*%
%ADD25C,0.18787*%
%ADD26R,0.07480X0.07480*%
%ADD27C,0.24410*%
%ADD28C,0.05287*%
%ADD29C,0.05787*%
D15*
X97837Y48300D02*
D03*
X89963D02*
D03*
X169474Y252000D02*
D03*
X161600D02*
D03*
X116663Y161700D02*
D03*
X124537D02*
D03*
X120074Y48299D02*
D03*
X112200D02*
D03*
D16*
X93651Y67740D02*
D03*
X104100Y71480D02*
D03*
Y64000D02*
D03*
D17*
X131500Y137195D02*
D03*
X116500Y190305D02*
D03*
X121500D02*
D03*
X126500D02*
D03*
X131500D02*
D03*
X136500D02*
D03*
X141500D02*
D03*
X146500D02*
D03*
X151500D02*
D03*
X156500D02*
D03*
X161500D02*
D03*
X116500Y228495D02*
D03*
X121500D02*
D03*
X126500D02*
D03*
X131500D02*
D03*
X136500D02*
D03*
X141500D02*
D03*
X146500D02*
D03*
X151500D02*
D03*
X156500D02*
D03*
X161500D02*
D03*
X116500Y99006D02*
D03*
X121500D02*
D03*
X126500D02*
D03*
X131500D02*
D03*
X136500D02*
D03*
X141500D02*
D03*
X146500D02*
D03*
X151500D02*
D03*
X156500D02*
D03*
X161500D02*
D03*
X116500Y137195D02*
D03*
X121500D02*
D03*
X126500D02*
D03*
X136500D02*
D03*
X141500D02*
D03*
X146500D02*
D03*
X151500D02*
D03*
X156500D02*
D03*
X161500D02*
D03*
D18*
X266100Y247400D02*
D03*
X249100D02*
D03*
D19*
X176300Y198137D02*
D03*
Y190263D02*
D03*
X177500Y98900D02*
D03*
Y106774D02*
D03*
X120300Y71737D02*
D03*
Y63863D02*
D03*
D20*
X267110Y267500D02*
D03*
X249000D02*
D03*
D21*
X20757Y259415D02*
D03*
Y249572D02*
D03*
Y269257D02*
D03*
D22*
X81300Y258695D02*
D03*
X212700Y207200D02*
D03*
D23*
X81300Y248695D02*
D03*
Y238695D02*
D03*
Y228695D02*
D03*
X81300Y218695D02*
D03*
Y208695D02*
D03*
Y198695D02*
D03*
Y188695D02*
D03*
X81299Y178695D02*
D03*
Y168695D02*
D03*
Y158695D02*
D03*
Y148695D02*
D03*
X81299Y138694D02*
D03*
Y128694D02*
D03*
Y118694D02*
D03*
Y108694D02*
D03*
X81299Y98694D02*
D03*
Y88694D02*
D03*
Y78694D02*
D03*
Y68694D02*
D03*
X302500Y190000D02*
D03*
Y200000D02*
D03*
Y170000D02*
D03*
Y180000D02*
D03*
Y120000D02*
D03*
Y130000D02*
D03*
Y110000D02*
D03*
Y150000D02*
D03*
Y160000D02*
D03*
Y140000D02*
D03*
X292500Y170000D02*
D03*
Y180000D02*
D03*
Y160000D02*
D03*
Y200000D02*
D03*
Y210000D02*
D03*
Y190000D02*
D03*
Y120000D02*
D03*
Y130000D02*
D03*
Y110000D02*
D03*
Y150000D02*
D03*
X62500D02*
D03*
X292500Y140000D02*
D03*
X302500Y70000D02*
D03*
Y80000D02*
D03*
Y90000D02*
D03*
Y30000D02*
D03*
Y40000D02*
D03*
Y20000D02*
D03*
Y50000D02*
D03*
Y60000D02*
D03*
Y100000D02*
D03*
X292500Y90000D02*
D03*
Y80000D02*
D03*
Y100000D02*
D03*
Y30000D02*
D03*
Y40000D02*
D03*
Y20000D02*
D03*
Y60000D02*
D03*
Y70000D02*
D03*
Y50000D02*
D03*
X62500Y190000D02*
D03*
Y200000D02*
D03*
Y180000D02*
D03*
Y120000D02*
D03*
Y130000D02*
D03*
Y110000D02*
D03*
Y160000D02*
D03*
Y170000D02*
D03*
Y140000D02*
D03*
X52500Y180000D02*
D03*
Y170000D02*
D03*
Y200000D02*
D03*
Y210000D02*
D03*
Y190000D02*
D03*
Y120000D02*
D03*
Y130000D02*
D03*
Y110000D02*
D03*
Y150000D02*
D03*
Y160000D02*
D03*
Y140000D02*
D03*
X62500Y70000D02*
D03*
Y80000D02*
D03*
Y60000D02*
D03*
Y90000D02*
D03*
Y30000D02*
D03*
Y40000D02*
D03*
Y20000D02*
D03*
Y50000D02*
D03*
Y100000D02*
D03*
X52500Y90000D02*
D03*
Y80000D02*
D03*
Y100000D02*
D03*
Y30000D02*
D03*
Y40000D02*
D03*
Y20000D02*
D03*
Y60000D02*
D03*
Y70000D02*
D03*
Y50000D02*
D03*
X272700Y177200D02*
D03*
Y187200D02*
D03*
Y197200D02*
D03*
Y207200D02*
D03*
Y167200D02*
D03*
Y157200D02*
D03*
Y147200D02*
D03*
Y137200D02*
D03*
Y127200D02*
D03*
Y117200D02*
D03*
Y107200D02*
D03*
Y97200D02*
D03*
X212700Y97200D02*
D03*
Y107200D02*
D03*
Y117200D02*
D03*
Y127200D02*
D03*
Y137200D02*
D03*
Y147200D02*
D03*
Y157200D02*
D03*
Y167200D02*
D03*
Y197200D02*
D03*
Y187200D02*
D03*
Y177200D02*
D03*
D24*
X276969Y301491D02*
D03*
Y25900D02*
D03*
X81300Y301491D02*
D03*
Y25900D02*
D03*
D25*
X301700Y246700D02*
D03*
X314200Y266700D02*
D03*
X326700Y246700D02*
D03*
D26*
X302500Y210000D02*
D03*
X62500D02*
D03*
D27*
X20000Y299213D02*
D03*
X335000D02*
D03*
Y20000D02*
D03*
X20000D02*
D03*
D28*
X156300Y218700D02*
D03*
X151350Y111759D02*
D03*
X130850Y153550D02*
D03*
X97000Y88200D02*
D03*
X146600Y87400D02*
D03*
X156300Y85900D02*
D03*
X73300Y73600D02*
D03*
X156600Y108300D02*
D03*
X92900Y138700D02*
D03*
X100600Y129200D02*
D03*
X103600Y91800D02*
D03*
X214600Y238500D02*
D03*
X226300Y238400D02*
D03*
X238400Y234700D02*
D03*
X70800Y157700D02*
D03*
X136400Y147600D02*
D03*
X146500Y149100D02*
D03*
X172900Y136700D02*
D03*
X255200Y85800D02*
D03*
X185300Y127200D02*
D03*
X136300Y107600D02*
D03*
X126600Y128300D02*
D03*
X136500Y181700D02*
D03*
X146400Y219100D02*
D03*
X136300Y219900D02*
D03*
X126500Y219800D02*
D03*
X121800Y238200D02*
D03*
X131500D02*
D03*
X151200Y238900D02*
D03*
X141300Y238700D02*
D03*
D29*
X176000Y173300D02*
D03*
M02*
