G04*
G04 #@! TF.GenerationSoftware,Altium Limited,Altium Designer,24.2.2 (26)*
G04*
G04 Layer_Physical_Order=2*
G04 Layer_Color=16711680*
%FSLAX25Y25*%
%MOIN*%
G70*
G04*
G04 #@! TF.SameCoordinates,39AFF50E-F897-457A-A01D-6F320B20273F*
G04*
G04*
G04 #@! TF.FilePolarity,Positive*
G04*
G01*
G75*
%ADD14C,0.01000*%
%ADD37C,0.04724*%
%ADD38R,0.06693X0.06693*%
%ADD39C,0.06693*%
%ADD40C,0.19685*%
%ADD41C,0.18000*%
%ADD42R,0.06693X0.06693*%
%ADD43C,0.23622*%
%ADD44C,0.04500*%
%ADD45C,0.05000*%
G36*
X349034Y302086D02*
X348534Y302047D01*
X348471Y302447D01*
X347799Y304514D01*
X346812Y306451D01*
X345534Y308210D01*
X343997Y309747D01*
X342238Y311025D01*
X340302Y312012D01*
X338234Y312684D01*
X336087Y313024D01*
X333913D01*
X331766Y312684D01*
X329698Y312012D01*
X327762Y311025D01*
X326003Y309747D01*
X324465Y308210D01*
X323188Y306451D01*
X322201Y304514D01*
X321529Y302447D01*
X321189Y300300D01*
Y298126D01*
X321529Y295978D01*
X322201Y293911D01*
X323188Y291974D01*
X324465Y290215D01*
X326003Y288678D01*
X327762Y287400D01*
X329698Y286413D01*
X331766Y285742D01*
X333913Y285402D01*
X336087D01*
X338234Y285742D01*
X340302Y286413D01*
X342238Y287400D01*
X343997Y288678D01*
X345534Y290215D01*
X346812Y291974D01*
X347799Y293911D01*
X348471Y295978D01*
X348534Y296378D01*
X349034Y296339D01*
Y22874D01*
X348534Y22834D01*
X348471Y23234D01*
X347799Y25302D01*
X346812Y27239D01*
X345534Y28997D01*
X343997Y30534D01*
X342238Y31812D01*
X340302Y32799D01*
X338234Y33471D01*
X336087Y33811D01*
X333913D01*
X331766Y33471D01*
X329698Y32799D01*
X327762Y31812D01*
X326003Y30534D01*
X324465Y28997D01*
X323188Y27239D01*
X322201Y25302D01*
X321529Y23234D01*
X321189Y21087D01*
Y18913D01*
X321529Y16766D01*
X322201Y14698D01*
X323188Y12762D01*
X324465Y11003D01*
X326003Y9465D01*
X327762Y8188D01*
X329698Y7201D01*
X331766Y6529D01*
X332166Y6466D01*
X332126Y5966D01*
X108624D01*
X108432Y6428D01*
X137402Y35398D01*
X137955Y36224D01*
X138149Y37200D01*
Y64144D01*
X155673Y81668D01*
X155740Y81650D01*
X156860D01*
X157940Y81940D01*
X158910Y82499D01*
X159701Y83290D01*
X160260Y84260D01*
X160550Y85340D01*
Y86459D01*
X160260Y87540D01*
X159701Y88510D01*
X158910Y89301D01*
X157940Y89860D01*
X156860Y90150D01*
X155740D01*
X154660Y89860D01*
X153690Y89301D01*
X152899Y88510D01*
X152340Y87540D01*
X152050Y86459D01*
Y85340D01*
X152068Y85273D01*
X133949Y67154D01*
X133449Y67361D01*
Y70644D01*
X145973Y83168D01*
X146040Y83150D01*
X147160D01*
X148240Y83440D01*
X149210Y83999D01*
X150001Y84790D01*
X150560Y85760D01*
X150850Y86840D01*
Y87959D01*
X150560Y89040D01*
X150001Y90010D01*
X149210Y90801D01*
X148240Y91360D01*
X147160Y91650D01*
X146040D01*
X144960Y91360D01*
X143990Y90801D01*
X143199Y90010D01*
X142640Y89040D01*
X142350Y87959D01*
Y86840D01*
X142368Y86773D01*
X129611Y74016D01*
X129149Y74207D01*
Y124864D01*
X129210Y124899D01*
X130001Y125690D01*
X130560Y126660D01*
X130850Y127741D01*
Y128859D01*
X130560Y129940D01*
X130001Y130910D01*
X129210Y131701D01*
X128240Y132260D01*
X127160Y132550D01*
X126040D01*
X124960Y132260D01*
X123990Y131701D01*
X123199Y130910D01*
X122640Y129940D01*
X122350Y128859D01*
Y127741D01*
X122640Y126660D01*
X123199Y125690D01*
X123990Y124899D01*
X124051Y124864D01*
Y37456D01*
X101544Y14949D01*
X86964D01*
X86847Y15435D01*
X87507Y15771D01*
X89015Y16867D01*
X90333Y18185D01*
X91429Y19693D01*
X92275Y21354D01*
X92851Y23127D01*
X93142Y24968D01*
Y26832D01*
X92851Y28673D01*
X92275Y30446D01*
X91429Y32107D01*
X90333Y33615D01*
X89015Y34933D01*
X87507Y36029D01*
X85846Y36875D01*
X84073Y37451D01*
X82232Y37742D01*
X80368D01*
X78527Y37451D01*
X76754Y36875D01*
X75093Y36029D01*
X73585Y34933D01*
X72267Y33615D01*
X71171Y32107D01*
X70325Y30446D01*
X69749Y28673D01*
X69458Y26832D01*
Y24968D01*
X69749Y23127D01*
X70325Y21354D01*
X71171Y19693D01*
X72267Y18185D01*
X73585Y16867D01*
X75093Y15771D01*
X75753Y15435D01*
X75636Y14949D01*
X65444D01*
X65310Y15449D01*
X65783Y15722D01*
X66778Y16717D01*
X67482Y17936D01*
X67847Y19296D01*
Y20704D01*
X67482Y22064D01*
X66778Y23283D01*
X65783Y24278D01*
X65033Y24711D01*
Y25289D01*
X65783Y25722D01*
X66778Y26717D01*
X67482Y27936D01*
X67847Y29296D01*
Y30704D01*
X67482Y32064D01*
X66778Y33283D01*
X65783Y34278D01*
X65033Y34711D01*
Y35289D01*
X65783Y35722D01*
X66778Y36717D01*
X67482Y37936D01*
X67847Y39296D01*
Y40704D01*
X67482Y42064D01*
X66778Y43283D01*
X65783Y44278D01*
X65033Y44711D01*
Y45289D01*
X65783Y45722D01*
X66778Y46717D01*
X67482Y47936D01*
X67847Y49296D01*
Y50704D01*
X67482Y52064D01*
X66778Y53283D01*
X65783Y54278D01*
X65033Y54711D01*
Y55289D01*
X65783Y55722D01*
X66778Y56717D01*
X67482Y57936D01*
X67847Y59296D01*
Y60704D01*
X67482Y62064D01*
X66778Y63283D01*
X65783Y64278D01*
X65033Y64711D01*
Y65289D01*
X65783Y65722D01*
X66778Y66717D01*
X67202Y67451D01*
X69400D01*
X75056Y61795D01*
X75883Y61243D01*
X76859Y61049D01*
X83410D01*
X84385Y61243D01*
X85212Y61795D01*
X111820Y88403D01*
X112373Y89230D01*
X112567Y90206D01*
Y141062D01*
X116556Y145051D01*
X132964D01*
X132999Y144990D01*
X133790Y144199D01*
X134760Y143640D01*
X135840Y143350D01*
X136960D01*
X138040Y143640D01*
X139010Y144199D01*
X139801Y144990D01*
X140360Y145960D01*
X140523Y146567D01*
X140603Y146551D01*
X143064D01*
X143099Y146490D01*
X143890Y145699D01*
X144860Y145140D01*
X145940Y144850D01*
X147060D01*
X148140Y145140D01*
X148218Y145184D01*
X148651Y144934D01*
Y115070D01*
X147949Y114369D01*
X147390Y113399D01*
X147100Y112319D01*
Y111199D01*
X147275Y110546D01*
X146971Y110149D01*
X139736D01*
X139701Y110210D01*
X138910Y111001D01*
X137940Y111560D01*
X136860Y111850D01*
X135740D01*
X134660Y111560D01*
X133690Y111001D01*
X132899Y110210D01*
X132340Y109240D01*
X132050Y108159D01*
Y107041D01*
X132340Y105960D01*
X132899Y104990D01*
X133690Y104199D01*
X134660Y103640D01*
X135740Y103350D01*
X136860D01*
X137940Y103640D01*
X138910Y104199D01*
X139701Y104990D01*
X139736Y105051D01*
X147844D01*
X242798Y10098D01*
X243625Y9545D01*
X244600Y9351D01*
X293400D01*
X294375Y9545D01*
X295202Y10098D01*
X299149Y14044D01*
X299701Y14871D01*
X299720Y14962D01*
X300175Y15169D01*
X300436Y15018D01*
X301796Y14654D01*
X303204D01*
X304564Y15018D01*
X305783Y15722D01*
X306778Y16717D01*
X307482Y17936D01*
X307846Y19296D01*
Y20704D01*
X307482Y22064D01*
X306778Y23283D01*
X305783Y24278D01*
X305033Y24711D01*
Y25289D01*
X305783Y25722D01*
X306778Y26717D01*
X307482Y27936D01*
X307846Y29296D01*
Y30704D01*
X307627Y31522D01*
X311149Y35044D01*
X311701Y35871D01*
X311895Y36847D01*
Y215754D01*
X311701Y216729D01*
X311149Y217556D01*
X298802Y229902D01*
X297975Y230455D01*
X297000Y230649D01*
X240883D01*
X240749Y231149D01*
X241010Y231299D01*
X241801Y232090D01*
X242360Y233060D01*
X242650Y234140D01*
Y235260D01*
X242360Y236340D01*
X241801Y237310D01*
X241010Y238101D01*
X240040Y238660D01*
X238960Y238950D01*
X237841D01*
X237536Y238868D01*
X197902Y278502D01*
X197075Y279055D01*
X196100Y279249D01*
X81600D01*
X80625Y279055D01*
X79798Y278502D01*
X39798Y238502D01*
X39245Y237675D01*
X39051Y236700D01*
Y150000D01*
X39245Y149024D01*
X39798Y148198D01*
X44951Y143044D01*
X45778Y142491D01*
X46753Y142297D01*
X47115D01*
X47447Y141797D01*
X47154Y140704D01*
Y139296D01*
X47518Y137936D01*
X48222Y136717D01*
X49217Y135722D01*
X49967Y135289D01*
Y134711D01*
X49217Y134278D01*
X48222Y133283D01*
X47518Y132064D01*
X47154Y130704D01*
Y129296D01*
X47518Y127936D01*
X48222Y126717D01*
X49217Y125722D01*
X50436Y125018D01*
X51499Y124733D01*
Y124215D01*
X50828Y124036D01*
X49841Y123465D01*
X49035Y122659D01*
X48464Y121672D01*
X48175Y120591D01*
X52500D01*
Y119409D01*
X48175D01*
X48464Y118328D01*
X49035Y117341D01*
X49841Y116535D01*
X50828Y115964D01*
X51499Y115785D01*
Y115267D01*
X50436Y114982D01*
X49217Y114278D01*
X48222Y113283D01*
X47518Y112064D01*
X47154Y110704D01*
Y109296D01*
X47518Y107936D01*
X48222Y106717D01*
X49217Y105722D01*
X49967Y105289D01*
Y104711D01*
X49217Y104278D01*
X48222Y103283D01*
X47518Y102064D01*
X47154Y100704D01*
Y99296D01*
X47373Y98478D01*
X38098Y89202D01*
X37545Y88376D01*
X37351Y87400D01*
Y15200D01*
X37545Y14225D01*
X38098Y13398D01*
X45068Y6428D01*
X44876Y5966D01*
X22874D01*
X22834Y6466D01*
X23234Y6529D01*
X25302Y7201D01*
X27239Y8188D01*
X28997Y9465D01*
X30534Y11003D01*
X31812Y12762D01*
X32799Y14698D01*
X33471Y16766D01*
X33811Y18913D01*
Y21087D01*
X33471Y23234D01*
X32799Y25302D01*
X31812Y27239D01*
X30534Y28997D01*
X28997Y30534D01*
X27239Y31812D01*
X25302Y32799D01*
X23234Y33471D01*
X21087Y33811D01*
X18913D01*
X16766Y33471D01*
X14698Y32799D01*
X12762Y31812D01*
X11003Y30534D01*
X9465Y28997D01*
X8188Y27239D01*
X7201Y25302D01*
X6529Y23234D01*
X6466Y22834D01*
X5966Y22874D01*
Y296339D01*
X6466Y296378D01*
X6529Y295978D01*
X7201Y293911D01*
X8188Y291974D01*
X9465Y290215D01*
X11003Y288678D01*
X12762Y287400D01*
X14698Y286413D01*
X16766Y285742D01*
X18913Y285402D01*
X21087D01*
X23234Y285742D01*
X25302Y286413D01*
X27239Y287400D01*
X28997Y288678D01*
X30534Y290215D01*
X31812Y291974D01*
X32799Y293911D01*
X33471Y295978D01*
X33811Y298126D01*
Y300300D01*
X33471Y302447D01*
X32799Y304514D01*
X31812Y306451D01*
X30534Y308210D01*
X28997Y309747D01*
X27239Y311025D01*
X25302Y312012D01*
X23234Y312684D01*
X21087Y313024D01*
X18913D01*
X16766Y312684D01*
X14698Y312012D01*
X12762Y311025D01*
X11003Y309747D01*
X9465Y308210D01*
X8188Y306451D01*
X7201Y304514D01*
X6529Y302447D01*
X6466Y302047D01*
X5966Y302086D01*
Y316434D01*
X349034D01*
Y302086D01*
D02*
G37*
G36*
X222068Y239027D02*
X222050Y238960D01*
Y237841D01*
X222340Y236760D01*
X222899Y235790D01*
X223690Y234999D01*
X224660Y234440D01*
X225741Y234150D01*
X226859D01*
X227940Y234440D01*
X228910Y234999D01*
X229701Y235790D01*
X230260Y236760D01*
X230550Y237841D01*
Y237992D01*
X231012Y238183D01*
X234150Y235045D01*
Y234140D01*
X234440Y233060D01*
X234999Y232090D01*
X235790Y231299D01*
X236051Y231149D01*
X235917Y230649D01*
X139197D01*
X138221Y230455D01*
X137394Y229902D01*
X129901Y222410D01*
X129901Y222410D01*
X129110Y223201D01*
X128140Y223760D01*
X127059Y224050D01*
X125941D01*
X124860Y223760D01*
X123890Y223201D01*
X123099Y222410D01*
X122540Y221440D01*
X122250Y220359D01*
Y219240D01*
X122540Y218160D01*
X123099Y217190D01*
X123890Y216399D01*
X124860Y215840D01*
X125941Y215550D01*
X127059D01*
X128140Y215840D01*
X129110Y216399D01*
X129901Y217190D01*
X129936Y217251D01*
X130897D01*
X131872Y217445D01*
X132245Y217694D01*
X132732Y217581D01*
X132899Y217290D01*
X133690Y216499D01*
X134660Y215940D01*
X135740Y215650D01*
X136860D01*
X137940Y215940D01*
X138910Y216499D01*
X139701Y217290D01*
X140260Y218260D01*
X140550Y219340D01*
Y220460D01*
X140532Y220527D01*
X143556Y223551D01*
X144659D01*
X144760Y223060D01*
X143790Y222501D01*
X142999Y221710D01*
X142440Y220740D01*
X142150Y219659D01*
Y218541D01*
X142440Y217460D01*
X142999Y216490D01*
X143790Y215699D01*
X144760Y215140D01*
X145841Y214850D01*
X146959D01*
X148040Y215140D01*
X149010Y215699D01*
X149801Y216490D01*
X149836Y216551D01*
X150197D01*
X151172Y216745D01*
X151795Y217161D01*
X152190Y217088D01*
X152319Y217034D01*
X152387Y216978D01*
X152899Y216090D01*
X153690Y215299D01*
X154660Y214740D01*
X155740Y214450D01*
X156860D01*
X157940Y214740D01*
X158910Y215299D01*
X159701Y216090D01*
X159736Y216151D01*
X242544D01*
X257651Y201044D01*
Y89792D01*
X257218Y89542D01*
X256840Y89760D01*
X255760Y90050D01*
X254641D01*
X253560Y89760D01*
X252590Y89201D01*
X251939Y88549D01*
X208056D01*
X187849Y108756D01*
Y123764D01*
X187910Y123799D01*
X188701Y124590D01*
X189260Y125560D01*
X189550Y126640D01*
Y127760D01*
X189260Y128840D01*
X188701Y129810D01*
X187910Y130601D01*
X186940Y131160D01*
X185860Y131450D01*
X184740D01*
X183660Y131160D01*
X182690Y130601D01*
X181899Y129810D01*
X181340Y128840D01*
X181050Y127760D01*
Y126640D01*
X181340Y125560D01*
X181899Y124590D01*
X182690Y123799D01*
X182751Y123764D01*
Y107700D01*
X182945Y106725D01*
X183498Y105898D01*
X205198Y84198D01*
X206025Y83645D01*
X207000Y83451D01*
X251649D01*
X251799Y83190D01*
X252590Y82399D01*
X253560Y81840D01*
X254641Y81550D01*
X255760D01*
X256840Y81840D01*
X257218Y82058D01*
X257651Y81808D01*
Y62000D01*
X257845Y61024D01*
X258398Y60198D01*
X281040Y37555D01*
X280772Y37117D01*
X279742Y37451D01*
X277901Y37742D01*
X276037D01*
X274196Y37451D01*
X272423Y36875D01*
X270762Y36029D01*
X269254Y34933D01*
X267936Y33615D01*
X266841Y32107D01*
X265994Y30446D01*
X265418Y28673D01*
X265127Y26832D01*
Y24968D01*
X265418Y23127D01*
X265994Y21354D01*
X266841Y19693D01*
X267936Y18185D01*
X269254Y16867D01*
X270762Y15771D01*
X272423Y14925D01*
X272348Y14449D01*
X245656D01*
X156517Y103588D01*
X156708Y104050D01*
X157159D01*
X158240Y104340D01*
X159210Y104899D01*
X160001Y105690D01*
X160560Y106660D01*
X160850Y107740D01*
Y108860D01*
X160832Y108927D01*
X174702Y122798D01*
X175255Y123625D01*
X175449Y124600D01*
Y133264D01*
X175510Y133299D01*
X176301Y134090D01*
X176860Y135060D01*
X177150Y136141D01*
Y137259D01*
X176860Y138340D01*
X176301Y139310D01*
X175510Y140101D01*
X174540Y140660D01*
X173459Y140950D01*
X172341D01*
X171260Y140660D01*
X170290Y140101D01*
X169499Y139310D01*
X168940Y138340D01*
X168650Y137259D01*
Y136141D01*
X168940Y135060D01*
X169499Y134090D01*
X170290Y133299D01*
X170351Y133264D01*
Y125656D01*
X157227Y112532D01*
X157159Y112550D01*
X156041D01*
X155572Y112424D01*
X155310Y113399D01*
X154751Y114369D01*
X153960Y115160D01*
X153749Y115281D01*
Y163500D01*
X153555Y164476D01*
X153002Y165302D01*
X148002Y170302D01*
X147176Y170855D01*
X146200Y171049D01*
X114373D01*
X113397Y170855D01*
X112570Y170302D01*
X93511Y151244D01*
X91324D01*
X91172Y151744D01*
X91402Y151898D01*
X118656Y179151D01*
X133064D01*
X133099Y179090D01*
X133890Y178299D01*
X134860Y177740D01*
X135941Y177450D01*
X137059D01*
X138140Y177740D01*
X139110Y178299D01*
X139901Y179090D01*
X140460Y180060D01*
X140750Y181140D01*
Y182260D01*
X140460Y183340D01*
X139901Y184310D01*
X139110Y185101D01*
X138140Y185660D01*
X137059Y185950D01*
X135941D01*
X134860Y185660D01*
X133890Y185101D01*
X133099Y184310D01*
X133064Y184249D01*
X117600D01*
X116624Y184055D01*
X115798Y183502D01*
X88544Y156249D01*
X86571D01*
X86313Y156749D01*
X86646Y157991D01*
Y159398D01*
X86427Y160217D01*
X111202Y184993D01*
X111755Y185820D01*
X111949Y186795D01*
Y224744D01*
X121173Y233968D01*
X121240Y233950D01*
X122360D01*
X123440Y234240D01*
X124410Y234799D01*
X125201Y235590D01*
X125760Y236560D01*
X126050Y237641D01*
Y238759D01*
X125760Y239840D01*
X125505Y240284D01*
X125905Y240591D01*
X127353Y239143D01*
X127250Y238759D01*
Y237641D01*
X127540Y236560D01*
X128099Y235590D01*
X128890Y234799D01*
X129860Y234240D01*
X130940Y233950D01*
X132060D01*
X133140Y234240D01*
X134110Y234799D01*
X134901Y235590D01*
X135460Y236560D01*
X135750Y237641D01*
Y238759D01*
X135460Y239840D01*
X134901Y240809D01*
X135270Y241125D01*
X137068Y239327D01*
X137050Y239260D01*
Y238141D01*
X137340Y237060D01*
X137899Y236090D01*
X138690Y235299D01*
X139660Y234740D01*
X140741Y234450D01*
X141859D01*
X142940Y234740D01*
X143910Y235299D01*
X144701Y236090D01*
X145260Y237060D01*
X145550Y238141D01*
Y239260D01*
X145260Y240340D01*
X145004Y240784D01*
X145405Y241091D01*
X146968Y239527D01*
X146950Y239459D01*
Y238340D01*
X147240Y237260D01*
X147799Y236290D01*
X148590Y235499D01*
X149560Y234940D01*
X150640Y234650D01*
X151760D01*
X152840Y234940D01*
X153810Y235499D01*
X154601Y236290D01*
X155160Y237260D01*
X155450Y238340D01*
Y239459D01*
X155160Y240540D01*
X154601Y241510D01*
X153810Y242301D01*
X152840Y242860D01*
X151760Y243150D01*
X150640D01*
X150573Y243132D01*
X141117Y252588D01*
X140290Y253141D01*
X139314Y253335D01*
X120429D01*
X119454Y253141D01*
X118626Y252588D01*
X91476Y225438D01*
X90923Y224611D01*
X90729Y223635D01*
Y201729D01*
X87146Y198146D01*
X86646Y198353D01*
Y199399D01*
X86282Y200759D01*
X85578Y201978D01*
X84583Y202973D01*
X83832Y203406D01*
Y203984D01*
X84583Y204417D01*
X85578Y205412D01*
X86282Y206631D01*
X86646Y207991D01*
Y209399D01*
X86282Y210759D01*
X85578Y211978D01*
X84583Y212973D01*
X83832Y213406D01*
Y213984D01*
X84583Y214417D01*
X85578Y215412D01*
X86282Y216631D01*
X86646Y217991D01*
Y219399D01*
X86282Y220759D01*
X85578Y221978D01*
X84583Y222973D01*
X83832Y223406D01*
Y223984D01*
X84583Y224417D01*
X85578Y225413D01*
X86282Y226632D01*
X86646Y227991D01*
Y229399D01*
X86282Y230759D01*
X85578Y231978D01*
X84583Y232974D01*
X83833Y233407D01*
Y233984D01*
X84583Y234417D01*
X85578Y235413D01*
X86282Y236632D01*
X86646Y237991D01*
Y239399D01*
X86282Y240759D01*
X85578Y241978D01*
X84583Y242973D01*
X83364Y243677D01*
X82301Y243962D01*
Y244480D01*
X82972Y244660D01*
X83959Y245230D01*
X84765Y246036D01*
X85336Y247024D01*
X85625Y248105D01*
X81300D01*
X76975D01*
X77264Y247024D01*
X77835Y246036D01*
X78641Y245230D01*
X79628Y244660D01*
X80300Y244480D01*
Y243962D01*
X79236Y243677D01*
X78017Y242973D01*
X77022Y241978D01*
X76318Y240759D01*
X75954Y239399D01*
Y237991D01*
X76318Y236632D01*
X77022Y235413D01*
X78017Y234417D01*
X78767Y233984D01*
Y233407D01*
X78017Y232974D01*
X77022Y231978D01*
X76318Y230759D01*
X75954Y229399D01*
Y227991D01*
X76318Y226632D01*
X77022Y225413D01*
X78017Y224417D01*
X78768Y223984D01*
Y223407D01*
X78017Y222973D01*
X77021Y221978D01*
X76318Y220759D01*
X75953Y219399D01*
Y217991D01*
X76318Y216631D01*
X77021Y215412D01*
X78017Y214417D01*
X78767Y213984D01*
Y213406D01*
X78017Y212973D01*
X77021Y211978D01*
X76318Y210759D01*
X75953Y209399D01*
Y207991D01*
X76318Y206631D01*
X77021Y205412D01*
X78017Y204417D01*
X78767Y203984D01*
Y203406D01*
X78017Y202973D01*
X77021Y201978D01*
X76318Y200759D01*
X75953Y199399D01*
Y197991D01*
X76318Y196631D01*
X77021Y195412D01*
X78017Y194417D01*
X78767Y193984D01*
Y193406D01*
X78017Y192973D01*
X77021Y191978D01*
X76318Y190759D01*
X75953Y189399D01*
Y187991D01*
X76318Y186631D01*
X77021Y185412D01*
X78017Y184417D01*
X78767Y183984D01*
Y183406D01*
X78017Y182973D01*
X77021Y181977D01*
X76317Y180758D01*
X76220Y180397D01*
X75737Y180267D01*
X69356Y186649D01*
X68529Y187201D01*
X67727Y187361D01*
X67427Y187841D01*
X67482Y187936D01*
X67847Y189296D01*
Y190704D01*
X67482Y192064D01*
X66778Y193283D01*
X65783Y194278D01*
X65033Y194711D01*
Y195289D01*
X65783Y195722D01*
X66778Y196717D01*
X67482Y197936D01*
X67847Y199296D01*
Y200704D01*
X67482Y202064D01*
X66778Y203283D01*
X65908Y204153D01*
X66084Y204654D01*
X67847D01*
Y215347D01*
X57153D01*
Y213584D01*
X56653Y213407D01*
X55783Y214278D01*
X54564Y214982D01*
X53204Y215347D01*
X51796D01*
X50703Y215053D01*
X50203Y215385D01*
Y232807D01*
X75492Y258096D01*
X75954Y257905D01*
Y253349D01*
X80003D01*
X80069Y252849D01*
X79628Y252731D01*
X78641Y252161D01*
X77835Y251354D01*
X77264Y250367D01*
X76975Y249286D01*
X81300D01*
X85625D01*
X85336Y250367D01*
X84765Y251354D01*
X83959Y252161D01*
X82972Y252731D01*
X82531Y252849D01*
X82597Y253349D01*
X86646D01*
Y264042D01*
X82090D01*
X81899Y264504D01*
X86446Y269051D01*
X180444D01*
X210368Y239127D01*
X210350Y239059D01*
Y237941D01*
X210640Y236860D01*
X211199Y235890D01*
X211990Y235099D01*
X212960Y234540D01*
X214040Y234250D01*
X215160D01*
X216240Y234540D01*
X217210Y235099D01*
X218001Y235890D01*
X218560Y236860D01*
X218850Y237941D01*
Y239059D01*
X218560Y240140D01*
X218001Y241110D01*
X217210Y241901D01*
X216240Y242460D01*
X215160Y242750D01*
X214040D01*
X213973Y242732D01*
X185616Y271089D01*
X185807Y271551D01*
X189544D01*
X222068Y239027D01*
D02*
G37*
G36*
X301901Y215808D02*
X301710Y215347D01*
X297153D01*
Y213584D01*
X296654Y213407D01*
X295783Y214278D01*
X294564Y214982D01*
X293204Y215347D01*
X291796D01*
X290436Y214982D01*
X289217Y214278D01*
X288222Y213283D01*
X287518Y212064D01*
X287154Y210704D01*
Y209296D01*
X287518Y207936D01*
X288222Y206717D01*
X289217Y205722D01*
X289967Y205289D01*
Y204711D01*
X289217Y204278D01*
X288222Y203283D01*
X287518Y202064D01*
X287154Y200704D01*
Y199296D01*
X287518Y197936D01*
X288222Y196717D01*
X289217Y195722D01*
X289967Y195289D01*
Y194711D01*
X289217Y194278D01*
X288222Y193283D01*
X287518Y192064D01*
X287154Y190704D01*
Y189296D01*
X287518Y187936D01*
X288222Y186717D01*
X289217Y185722D01*
X290436Y185018D01*
X291499Y184733D01*
Y184215D01*
X290828Y184036D01*
X289841Y183465D01*
X289035Y182659D01*
X288464Y181672D01*
X288175Y180591D01*
X292500D01*
Y179409D01*
X288175D01*
X288464Y178328D01*
X289035Y177341D01*
X289841Y176535D01*
X290828Y175964D01*
X291499Y175785D01*
Y175267D01*
X290436Y174982D01*
X289217Y174278D01*
X288222Y173283D01*
X287518Y172064D01*
X287154Y170704D01*
Y169296D01*
X287518Y167936D01*
X288222Y166717D01*
X289217Y165722D01*
X289967Y165289D01*
Y164711D01*
X289217Y164278D01*
X288222Y163283D01*
X287518Y162064D01*
X287154Y160704D01*
Y159296D01*
X287518Y157936D01*
X288222Y156717D01*
X289217Y155722D01*
X289967Y155289D01*
Y154711D01*
X289217Y154278D01*
X288222Y153283D01*
X287518Y152064D01*
X287154Y150704D01*
Y149296D01*
X287518Y147936D01*
X288222Y146717D01*
X289217Y145722D01*
X289967Y145289D01*
Y144711D01*
X289217Y144278D01*
X288222Y143283D01*
X287518Y142064D01*
X287154Y140704D01*
Y139296D01*
X287518Y137936D01*
X288222Y136717D01*
X289217Y135722D01*
X289967Y135289D01*
Y134711D01*
X289217Y134278D01*
X288222Y133283D01*
X287518Y132064D01*
X287154Y130704D01*
Y129296D01*
X287518Y127936D01*
X288222Y126717D01*
X289217Y125722D01*
X290436Y125018D01*
X291499Y124733D01*
Y124215D01*
X290828Y124036D01*
X289841Y123465D01*
X289035Y122659D01*
X288464Y121672D01*
X288175Y120591D01*
X292500D01*
X296825D01*
X296536Y121672D01*
X295965Y122659D01*
X295159Y123465D01*
X294172Y124036D01*
X293500Y124215D01*
Y124733D01*
X294564Y125018D01*
X295783Y125722D01*
X296778Y126717D01*
X297211Y127467D01*
X297789D01*
X298222Y126717D01*
X299217Y125722D01*
X300436Y125018D01*
X301500Y124733D01*
Y124215D01*
X300828Y124036D01*
X299841Y123465D01*
X299035Y122659D01*
X298464Y121672D01*
X298175Y120591D01*
X302500D01*
Y119409D01*
X298175D01*
X298464Y118328D01*
X299035Y117341D01*
X299841Y116535D01*
X300828Y115964D01*
X301500Y115785D01*
Y115267D01*
X300436Y114982D01*
X299217Y114278D01*
X298222Y113283D01*
X297518Y112064D01*
X297233Y111001D01*
X296715D01*
X296536Y111672D01*
X295965Y112659D01*
X295159Y113465D01*
X294172Y114036D01*
X293091Y114325D01*
Y110000D01*
X292500D01*
Y109409D01*
X288175D01*
X288464Y108328D01*
X289035Y107341D01*
X289841Y106535D01*
X290828Y105964D01*
X291499Y105785D01*
Y105267D01*
X290436Y104982D01*
X289217Y104278D01*
X288222Y103283D01*
X287518Y102064D01*
X287154Y100704D01*
Y99296D01*
X287518Y97936D01*
X288222Y96717D01*
X289217Y95722D01*
X289967Y95289D01*
Y94711D01*
X289217Y94278D01*
X288222Y93283D01*
X287518Y92064D01*
X287154Y90704D01*
Y89296D01*
X287518Y87936D01*
X288222Y86717D01*
X289217Y85722D01*
X289967Y85289D01*
Y84711D01*
X289217Y84278D01*
X288222Y83283D01*
X287518Y82064D01*
X287154Y80704D01*
Y79296D01*
X287518Y77936D01*
X288222Y76717D01*
X289217Y75722D01*
X289967Y75289D01*
Y74711D01*
X289217Y74278D01*
X288222Y73283D01*
X287518Y72064D01*
X287154Y70704D01*
Y69658D01*
X286653Y69451D01*
X285149Y70956D01*
Y147300D01*
X284955Y148275D01*
X284402Y149102D01*
X277827Y155677D01*
X278046Y156496D01*
Y157904D01*
X277682Y159263D01*
X276978Y160483D01*
X275983Y161478D01*
X275233Y161911D01*
Y162488D01*
X275983Y162922D01*
X276978Y163917D01*
X277682Y165136D01*
X278046Y166496D01*
Y167903D01*
X277682Y169263D01*
X276978Y170483D01*
X275983Y171478D01*
X275233Y171911D01*
Y172488D01*
X275983Y172922D01*
X276978Y173917D01*
X277682Y175136D01*
X278046Y176496D01*
Y177903D01*
X277682Y179263D01*
X276978Y180482D01*
X275983Y181478D01*
X275233Y181911D01*
Y182488D01*
X275983Y182922D01*
X276978Y183917D01*
X277682Y185136D01*
X278046Y186496D01*
Y187903D01*
X277682Y189263D01*
X276978Y190482D01*
X275983Y191478D01*
X275233Y191911D01*
Y192488D01*
X275983Y192921D01*
X276978Y193917D01*
X277682Y195136D01*
X278046Y196496D01*
Y197904D01*
X277682Y199263D01*
X276978Y200483D01*
X275983Y201478D01*
X275233Y201911D01*
Y202488D01*
X275983Y202922D01*
X276978Y203917D01*
X277682Y205136D01*
X278046Y206496D01*
Y207904D01*
X277682Y209263D01*
X276978Y210483D01*
X275983Y211478D01*
X274764Y212182D01*
X273404Y212546D01*
X271996D01*
X270636Y212182D01*
X269417Y211478D01*
X268422Y210483D01*
X267718Y209263D01*
X267354Y207904D01*
Y206496D01*
X267718Y205136D01*
X268422Y203917D01*
X269417Y202922D01*
X270167Y202488D01*
Y201911D01*
X269417Y201478D01*
X268422Y200483D01*
X267718Y199263D01*
X267354Y197904D01*
Y196496D01*
X267718Y195136D01*
X268422Y193917D01*
X269417Y192921D01*
X270167Y192488D01*
Y191911D01*
X269417Y191478D01*
X268422Y190482D01*
X267718Y189263D01*
X267354Y187903D01*
Y186496D01*
X267718Y185136D01*
X268422Y183917D01*
X269417Y182922D01*
X270167Y182488D01*
Y181911D01*
X269417Y181478D01*
X268422Y180482D01*
X267718Y179263D01*
X267354Y177903D01*
Y176496D01*
X267718Y175136D01*
X268422Y173917D01*
X269417Y172922D01*
X270167Y172488D01*
Y171911D01*
X269417Y171478D01*
X268422Y170483D01*
X267718Y169263D01*
X267354Y167903D01*
Y166496D01*
X267718Y165136D01*
X268422Y163917D01*
X269417Y162922D01*
X270167Y162488D01*
Y161911D01*
X269417Y161478D01*
X268422Y160483D01*
X267718Y159263D01*
X267354Y157904D01*
Y156496D01*
X267718Y155136D01*
X268422Y153917D01*
X269417Y152921D01*
X270167Y152488D01*
Y151911D01*
X269417Y151478D01*
X268422Y150482D01*
X267718Y149263D01*
X267354Y147904D01*
Y146496D01*
X267718Y145136D01*
X268422Y143917D01*
X269417Y142921D01*
X270167Y142488D01*
Y141911D01*
X269417Y141478D01*
X268422Y140482D01*
X267718Y139263D01*
X267354Y137903D01*
Y136496D01*
X267718Y135136D01*
X268422Y133917D01*
X269417Y132922D01*
X270167Y132488D01*
Y131911D01*
X269417Y131478D01*
X268422Y130482D01*
X267718Y129263D01*
X267354Y127903D01*
Y126496D01*
X267718Y125136D01*
X268422Y123917D01*
X269417Y122922D01*
X270167Y122488D01*
Y121911D01*
X269417Y121478D01*
X268422Y120483D01*
X267718Y119263D01*
X267354Y117903D01*
Y116496D01*
X267718Y115136D01*
X268422Y113917D01*
X269417Y112922D01*
X270167Y112488D01*
Y111911D01*
X269417Y111478D01*
X268422Y110483D01*
X267718Y109263D01*
X267354Y107904D01*
Y106496D01*
X267718Y105136D01*
X268422Y103917D01*
X269417Y102921D01*
X270636Y102218D01*
X271700Y101933D01*
Y101415D01*
X271028Y101235D01*
X270041Y100665D01*
X269235Y99859D01*
X268664Y98871D01*
X268375Y97790D01*
X272700D01*
X277025D01*
X276736Y98871D01*
X276165Y99859D01*
X275359Y100665D01*
X274372Y101235D01*
X273700Y101415D01*
Y101933D01*
X274764Y102218D01*
X275983Y102921D01*
X276978Y103917D01*
X277682Y105136D01*
X278046Y106496D01*
Y107904D01*
X277682Y109263D01*
X276978Y110483D01*
X275983Y111478D01*
X275233Y111911D01*
Y112488D01*
X275983Y112922D01*
X276978Y113917D01*
X277682Y115136D01*
X278046Y116496D01*
Y117903D01*
X277682Y119263D01*
X276978Y120483D01*
X275983Y121478D01*
X275233Y121911D01*
Y122488D01*
X275983Y122922D01*
X276978Y123917D01*
X277682Y125136D01*
X278046Y126496D01*
Y127903D01*
X277682Y129263D01*
X276978Y130482D01*
X275983Y131478D01*
X275233Y131911D01*
Y132488D01*
X275983Y132922D01*
X276978Y133917D01*
X277682Y135136D01*
X278046Y136496D01*
Y137903D01*
X277682Y139263D01*
X276978Y140482D01*
X275983Y141478D01*
X275233Y141911D01*
Y142488D01*
X275983Y142921D01*
X276978Y143917D01*
X277682Y145136D01*
X278046Y146496D01*
Y147541D01*
X278547Y147748D01*
X280051Y146244D01*
Y69900D01*
X280245Y68924D01*
X280798Y68098D01*
X287373Y61522D01*
X287154Y60704D01*
Y59296D01*
X287518Y57936D01*
X288222Y56717D01*
X289217Y55722D01*
X289967Y55289D01*
Y54711D01*
X289217Y54278D01*
X288222Y53283D01*
X287518Y52064D01*
X287154Y50704D01*
Y49658D01*
X286653Y49451D01*
X265749Y70356D01*
Y204700D01*
X265555Y205676D01*
X265002Y206502D01*
X248416Y223089D01*
X248607Y223551D01*
X294158D01*
X301901Y215808D01*
D02*
G37*
G36*
X72851Y175944D02*
Y161928D01*
X72351Y161684D01*
X71359Y161950D01*
X70240D01*
X69160Y161660D01*
X68249Y161135D01*
X67816Y161199D01*
X67706Y161229D01*
X67482Y162064D01*
X66778Y163283D01*
X65783Y164278D01*
X64564Y164982D01*
X63500Y165267D01*
Y165785D01*
X64172Y165964D01*
X65159Y166535D01*
X65965Y167341D01*
X66536Y168328D01*
X66825Y169409D01*
X62500D01*
Y170591D01*
X66825D01*
X66536Y171672D01*
X65965Y172659D01*
X65159Y173465D01*
X64172Y174036D01*
X63500Y174215D01*
Y174733D01*
X64564Y175018D01*
X65783Y175722D01*
X66778Y176717D01*
X67482Y177936D01*
X67847Y179296D01*
Y180242D01*
X68347Y180449D01*
X72851Y175944D01*
D02*
G37*
%LPC*%
G36*
X277901Y313333D02*
X276037D01*
X274196Y313041D01*
X272423Y312466D01*
X270762Y311619D01*
X269254Y310524D01*
X267936Y309205D01*
X266841Y307697D01*
X265994Y306036D01*
X265418Y304264D01*
X265127Y302423D01*
Y300558D01*
X265418Y298717D01*
X265994Y296945D01*
X266841Y295284D01*
X267936Y293776D01*
X269254Y292458D01*
X270762Y291362D01*
X272423Y290516D01*
X274196Y289940D01*
X276037Y289648D01*
X277901D01*
X279742Y289940D01*
X281515Y290516D01*
X283176Y291362D01*
X284684Y292458D01*
X286002Y293776D01*
X287098Y295284D01*
X287944Y296945D01*
X288520Y298717D01*
X288812Y300558D01*
Y302423D01*
X288520Y304264D01*
X287944Y306036D01*
X287098Y307697D01*
X286002Y309205D01*
X284684Y310524D01*
X283176Y311619D01*
X281515Y312466D01*
X279742Y313041D01*
X277901Y313333D01*
D02*
G37*
G36*
X82232D02*
X80368D01*
X78527Y313041D01*
X76754Y312466D01*
X75093Y311619D01*
X73585Y310524D01*
X72267Y309205D01*
X71171Y307697D01*
X70325Y306036D01*
X69749Y304264D01*
X69458Y302423D01*
Y300558D01*
X69749Y298717D01*
X70325Y296945D01*
X71171Y295284D01*
X72267Y293776D01*
X73585Y292458D01*
X75093Y291362D01*
X76754Y290516D01*
X78527Y289940D01*
X80368Y289648D01*
X82232D01*
X84073Y289940D01*
X85846Y290516D01*
X87507Y291362D01*
X89015Y292458D01*
X90333Y293776D01*
X91429Y295284D01*
X92275Y296945D01*
X92851Y298717D01*
X93142Y300558D01*
Y302423D01*
X92851Y304264D01*
X92275Y306036D01*
X91429Y307697D01*
X90333Y309205D01*
X89015Y310524D01*
X87507Y311619D01*
X85846Y312466D01*
X84073Y313041D01*
X82232Y313333D01*
D02*
G37*
G36*
X21348Y272564D02*
Y269848D01*
X24064D01*
X23876Y270549D01*
X23435Y271312D01*
X22812Y271935D01*
X22049Y272376D01*
X21348Y272564D01*
D02*
G37*
G36*
X20167D02*
X19466Y272376D01*
X18703Y271935D01*
X18080Y271312D01*
X17639Y270549D01*
X17451Y269848D01*
X20167D01*
Y272564D01*
D02*
G37*
G36*
X315183Y276684D02*
X314791D01*
Y267290D01*
X324184D01*
Y267683D01*
X323801Y269612D01*
X323048Y271429D01*
X321955Y273065D01*
X320565Y274455D01*
X318929Y275548D01*
X317112Y276301D01*
X315183Y276684D01*
D02*
G37*
G36*
X313610D02*
X313217D01*
X311288Y276301D01*
X309471Y275548D01*
X307835Y274455D01*
X306445Y273065D01*
X305352Y271429D01*
X304599Y269612D01*
X304216Y267683D01*
Y267290D01*
X313610D01*
Y276684D01*
D02*
G37*
G36*
X24064Y268667D02*
X21348D01*
Y265951D01*
X22049Y266139D01*
X22812Y266580D01*
X23435Y267203D01*
X23876Y267966D01*
X24064Y268667D01*
D02*
G37*
G36*
X20167D02*
X17451D01*
X17639Y267966D01*
X18080Y267203D01*
X18703Y266580D01*
X19466Y266139D01*
X20167Y265951D01*
Y268667D01*
D02*
G37*
G36*
X324184Y266109D02*
X314791D01*
Y256716D01*
X315183D01*
X317112Y257099D01*
X318929Y257852D01*
X320565Y258945D01*
X321955Y260335D01*
X323048Y261971D01*
X323801Y263788D01*
X324184Y265717D01*
Y266109D01*
D02*
G37*
G36*
X313610D02*
X304216D01*
Y265717D01*
X304599Y263788D01*
X305352Y261971D01*
X306445Y260335D01*
X307835Y258945D01*
X309471Y257852D01*
X311288Y257099D01*
X313217Y256716D01*
X313610D01*
Y266109D01*
D02*
G37*
G36*
X21332Y263777D02*
X20183D01*
X19074Y263480D01*
X18079Y262906D01*
X17267Y262093D01*
X16693Y261099D01*
X16395Y259989D01*
Y258841D01*
X16693Y257731D01*
X17267Y256736D01*
X18079Y255924D01*
X19074Y255350D01*
X20183Y255053D01*
X21332D01*
X22441Y255350D01*
X23436Y255924D01*
X24248Y256736D01*
X24822Y257731D01*
X25120Y258841D01*
Y259989D01*
X24822Y261099D01*
X24248Y262093D01*
X23436Y262906D01*
X22441Y263480D01*
X21332Y263777D01*
D02*
G37*
G36*
X327683Y256684D02*
X327291D01*
Y247290D01*
X336684D01*
Y247683D01*
X336301Y249612D01*
X335548Y251429D01*
X334455Y253065D01*
X333065Y254455D01*
X331429Y255548D01*
X329612Y256301D01*
X327683Y256684D01*
D02*
G37*
G36*
X326110D02*
X325717D01*
X323788Y256301D01*
X321971Y255548D01*
X320335Y254455D01*
X318945Y253065D01*
X317852Y251429D01*
X317099Y249612D01*
X316716Y247683D01*
Y247290D01*
X326110D01*
Y256684D01*
D02*
G37*
G36*
X21332Y253935D02*
X20183D01*
X19074Y253637D01*
X18079Y253063D01*
X17267Y252251D01*
X16693Y251256D01*
X16395Y250147D01*
Y248998D01*
X16693Y247889D01*
X17267Y246894D01*
X18079Y246082D01*
X19074Y245508D01*
X20183Y245210D01*
X21332D01*
X22441Y245508D01*
X23436Y246082D01*
X24248Y246894D01*
X24822Y247889D01*
X25120Y248998D01*
Y250147D01*
X24822Y251256D01*
X24248Y252251D01*
X23436Y253063D01*
X22441Y253637D01*
X21332Y253935D01*
D02*
G37*
G36*
X336684Y246110D02*
X327291D01*
Y236716D01*
X327683D01*
X329612Y237099D01*
X331429Y237852D01*
X333065Y238945D01*
X334455Y240335D01*
X335548Y241971D01*
X336301Y243788D01*
X336684Y245717D01*
Y246110D01*
D02*
G37*
G36*
X326110D02*
X316716D01*
Y245717D01*
X317099Y243788D01*
X317852Y241971D01*
X318945Y240335D01*
X320335Y238945D01*
X321971Y237852D01*
X323788Y237099D01*
X325717Y236716D01*
X326110D01*
Y246110D01*
D02*
G37*
G36*
X302566Y257700D02*
X300834D01*
X299124Y257429D01*
X297478Y256894D01*
X295935Y256108D01*
X294534Y255090D01*
X293310Y253866D01*
X292292Y252465D01*
X291506Y250922D01*
X290971Y249276D01*
X290700Y247566D01*
Y245834D01*
X290971Y244124D01*
X291506Y242477D01*
X292292Y240935D01*
X293310Y239534D01*
X294534Y238310D01*
X295935Y237292D01*
X297478Y236506D01*
X299124Y235971D01*
X300834Y235700D01*
X302566D01*
X304276Y235971D01*
X305923Y236506D01*
X307465Y237292D01*
X308866Y238310D01*
X310090Y239534D01*
X311108Y240935D01*
X311894Y242477D01*
X312429Y244124D01*
X312700Y245834D01*
Y247566D01*
X312429Y249276D01*
X311894Y250922D01*
X311108Y252465D01*
X310090Y253866D01*
X308866Y255090D01*
X307465Y256108D01*
X305923Y256894D01*
X304276Y257429D01*
X302566Y257700D01*
D02*
G37*
G36*
X25498Y160978D02*
X15500D01*
Y88000D01*
X25498D01*
Y160978D01*
D02*
G37*
G36*
X218046Y212546D02*
X207353D01*
Y201853D01*
X209116D01*
X209293Y201354D01*
X208422Y200483D01*
X207718Y199264D01*
X207353Y197904D01*
Y196496D01*
X207718Y195136D01*
X208422Y193917D01*
X209417Y192922D01*
X210167Y192489D01*
Y191911D01*
X209417Y191478D01*
X208422Y190483D01*
X207718Y189264D01*
X207353Y187904D01*
Y186496D01*
X207718Y185136D01*
X208422Y183917D01*
X209417Y182922D01*
X210636Y182218D01*
X211700Y181933D01*
Y181415D01*
X211028Y181236D01*
X210041Y180665D01*
X209235Y179859D01*
X208664Y178872D01*
X208375Y177791D01*
X212700D01*
X217025D01*
X216736Y178872D01*
X216165Y179859D01*
X215359Y180665D01*
X214372Y181236D01*
X213701Y181415D01*
Y181933D01*
X214764Y182218D01*
X215983Y182922D01*
X216978Y183917D01*
X217682Y185136D01*
X218046Y186496D01*
Y187904D01*
X217682Y189264D01*
X216978Y190483D01*
X215983Y191478D01*
X215233Y191911D01*
Y192489D01*
X215983Y192922D01*
X216978Y193917D01*
X217682Y195136D01*
X218046Y196496D01*
Y197904D01*
X217682Y199264D01*
X216978Y200483D01*
X216108Y201354D01*
X216284Y201853D01*
X218046D01*
Y212546D01*
D02*
G37*
G36*
X217025Y176609D02*
X213291D01*
Y172875D01*
X214372Y173164D01*
X215359Y173735D01*
X216165Y174541D01*
X216736Y175528D01*
X217025Y176609D01*
D02*
G37*
G36*
X212109D02*
X208375D01*
X208664Y175528D01*
X209235Y174541D01*
X210041Y173735D01*
X211028Y173164D01*
X212109Y172875D01*
Y176609D01*
D02*
G37*
G36*
X213291Y171525D02*
Y167791D01*
X217025D01*
X216736Y168872D01*
X216165Y169859D01*
X215359Y170665D01*
X214372Y171236D01*
X213291Y171525D01*
D02*
G37*
G36*
X212109D02*
X211028Y171236D01*
X210041Y170665D01*
X209235Y169859D01*
X208664Y168872D01*
X208375Y167791D01*
X212109D01*
Y171525D01*
D02*
G37*
G36*
X217025Y166609D02*
X212700D01*
X208375D01*
X208664Y165528D01*
X209235Y164541D01*
X210041Y163735D01*
X211028Y163164D01*
X211700Y162985D01*
Y162467D01*
X210636Y162182D01*
X209417Y161478D01*
X208422Y160483D01*
X207718Y159264D01*
X207353Y157904D01*
Y156496D01*
X207718Y155136D01*
X208422Y153917D01*
X209417Y152922D01*
X210167Y152489D01*
Y151911D01*
X209417Y151478D01*
X208422Y150483D01*
X207718Y149264D01*
X207353Y147904D01*
Y146496D01*
X207718Y145136D01*
X208422Y143917D01*
X209417Y142922D01*
X210167Y142489D01*
Y141911D01*
X209417Y141478D01*
X208422Y140483D01*
X207718Y139264D01*
X207353Y137904D01*
Y136496D01*
X207718Y135136D01*
X208422Y133917D01*
X209417Y132922D01*
X210167Y132489D01*
Y131911D01*
X209417Y131478D01*
X208422Y130483D01*
X207718Y129264D01*
X207353Y127904D01*
Y126496D01*
X207718Y125136D01*
X208422Y123917D01*
X209417Y122922D01*
X210167Y122489D01*
Y121911D01*
X209417Y121478D01*
X208422Y120483D01*
X207718Y119264D01*
X207353Y117904D01*
Y116496D01*
X207718Y115136D01*
X208422Y113917D01*
X209417Y112922D01*
X210167Y112489D01*
Y111911D01*
X209417Y111478D01*
X208422Y110483D01*
X207718Y109264D01*
X207353Y107904D01*
Y106496D01*
X207718Y105136D01*
X208422Y103917D01*
X209417Y102922D01*
X210167Y102489D01*
Y101911D01*
X209417Y101478D01*
X208422Y100483D01*
X207718Y99264D01*
X207353Y97904D01*
Y96496D01*
X207718Y95136D01*
X208422Y93917D01*
X209417Y92922D01*
X210636Y92218D01*
X211996Y91853D01*
X213404D01*
X214764Y92218D01*
X215983Y92922D01*
X216978Y93917D01*
X217682Y95136D01*
X218046Y96496D01*
Y97904D01*
X217682Y99264D01*
X216978Y100483D01*
X215983Y101478D01*
X215233Y101911D01*
Y102489D01*
X215983Y102922D01*
X216978Y103917D01*
X217682Y105136D01*
X218046Y106496D01*
Y107904D01*
X217682Y109264D01*
X216978Y110483D01*
X215983Y111478D01*
X215233Y111911D01*
Y112489D01*
X215983Y112922D01*
X216978Y113917D01*
X217682Y115136D01*
X218046Y116496D01*
Y117904D01*
X217682Y119264D01*
X216978Y120483D01*
X215983Y121478D01*
X215233Y121911D01*
Y122489D01*
X215983Y122922D01*
X216978Y123917D01*
X217682Y125136D01*
X218046Y126496D01*
Y127904D01*
X217682Y129264D01*
X216978Y130483D01*
X215983Y131478D01*
X215233Y131911D01*
Y132489D01*
X215983Y132922D01*
X216978Y133917D01*
X217682Y135136D01*
X218046Y136496D01*
Y137904D01*
X217682Y139264D01*
X216978Y140483D01*
X215983Y141478D01*
X215233Y141911D01*
Y142489D01*
X215983Y142922D01*
X216978Y143917D01*
X217682Y145136D01*
X218046Y146496D01*
Y147904D01*
X217682Y149264D01*
X216978Y150483D01*
X215983Y151478D01*
X215233Y151911D01*
Y152489D01*
X215983Y152922D01*
X216978Y153917D01*
X217682Y155136D01*
X218046Y156496D01*
Y157904D01*
X217682Y159264D01*
X216978Y160483D01*
X215983Y161478D01*
X214764Y162182D01*
X213701Y162467D01*
Y162985D01*
X214372Y163164D01*
X215359Y163735D01*
X216165Y164541D01*
X216736Y165528D01*
X217025Y166609D01*
D02*
G37*
G36*
X296825Y119409D02*
X293091D01*
Y115675D01*
X294172Y115964D01*
X295159Y116535D01*
X295965Y117341D01*
X296536Y118328D01*
X296825Y119409D01*
D02*
G37*
G36*
X291910D02*
X288175D01*
X288464Y118328D01*
X289035Y117341D01*
X289841Y116535D01*
X290828Y115964D01*
X291910Y115675D01*
Y119409D01*
D02*
G37*
G36*
Y114325D02*
X290828Y114036D01*
X289841Y113465D01*
X289035Y112659D01*
X288464Y111672D01*
X288175Y110591D01*
X291910D01*
Y114325D01*
D02*
G37*
G36*
X277025Y96609D02*
X273290D01*
Y92874D01*
X274372Y93164D01*
X275359Y93734D01*
X276165Y94541D01*
X276736Y95528D01*
X277025Y96609D01*
D02*
G37*
G36*
X272110D02*
X268375D01*
X268664Y95528D01*
X269235Y94541D01*
X270041Y93734D01*
X271028Y93164D01*
X272110Y92874D01*
Y96609D01*
D02*
G37*
%LPD*%
D14*
X116500Y86700D02*
Y115600D01*
X112500Y72800D02*
Y82700D01*
X116500Y86700D01*
X156300Y218700D02*
X243600D01*
X260200Y202100D01*
X151200Y111909D02*
Y163500D01*
Y111909D02*
X151350Y111759D01*
X130800Y153500D02*
X130850Y153550D01*
X116105Y153500D02*
X130800D01*
X106900Y144295D02*
X116105Y153500D01*
X106900Y126800D02*
Y144295D01*
X98794Y118694D02*
X106900Y126800D01*
X81299Y118694D02*
X98794D01*
X126600Y36400D02*
Y128300D01*
X130900Y36900D02*
Y71700D01*
X135600Y65200D02*
X156300Y85900D01*
X135600Y37200D02*
Y65200D01*
X130900Y71700D02*
X146600Y87400D01*
X91793Y88200D02*
X97000D01*
X42500Y17900D02*
Y86854D01*
X50646Y95000D01*
X54354D01*
X57346Y97992D01*
Y105154D01*
X52500Y110000D02*
X57346Y105154D01*
X45400Y69754D02*
X50800Y75153D01*
X45400Y19100D02*
Y69754D01*
X42500Y17900D02*
X51200Y9200D01*
X39900Y15200D02*
Y87400D01*
X52500Y100000D01*
X39900Y15200D02*
X48600Y6500D01*
X51200Y9200D02*
X103200D01*
X130900Y36900D01*
X102600Y12400D02*
X126600Y36400D01*
X52100Y12400D02*
X102600D01*
X104900Y6500D02*
X135600Y37200D01*
X45400Y19100D02*
X52100Y12400D01*
X48600Y6500D02*
X104900D01*
X73300Y73600D02*
Y119200D01*
X62500Y130000D02*
X73300Y119200D01*
X83410Y63598D02*
X110018Y90206D01*
X156600Y108300D02*
X172900Y124600D01*
X146200Y168500D02*
X151200Y163500D01*
X148900Y107600D02*
X244600Y11900D01*
X136300Y107600D02*
X148900D01*
X244600Y11900D02*
X293400D01*
X114373Y168500D02*
X146200D01*
X94567Y148695D02*
X114373Y168500D01*
X81299Y148695D02*
X94567D01*
X79440Y153700D02*
X89600D01*
X117600Y181700D01*
X81552Y128947D02*
X100347D01*
X92897Y138697D02*
X92900Y138700D01*
X81302Y138697D02*
X92897D01*
X81299Y128694D02*
X81552Y128947D01*
X100347D02*
X100600Y129200D01*
X62500Y70000D02*
X70456D01*
X76859Y63598D01*
X110018Y142118D02*
X115500Y147600D01*
X110018Y90206D02*
Y142118D01*
X115500Y147600D02*
X136400D01*
X87093Y108307D02*
X103600Y91800D01*
X282600Y69900D02*
X292500Y60000D01*
X282600Y69900D02*
Y147300D01*
X272700Y157200D02*
X282600Y147300D01*
X85391Y271600D02*
X181500D01*
X47653Y233863D02*
X85391Y271600D01*
X47653Y167992D02*
X50800Y164847D01*
X57653D01*
X47653Y167992D02*
Y233863D01*
X57653Y164847D02*
X62500Y160000D01*
X45300Y235800D02*
X83600Y274100D01*
X41600Y236700D02*
X81600Y276700D01*
X45300Y160346D02*
Y235800D01*
X41600Y150000D02*
Y236700D01*
X181500Y271600D02*
X214600Y238500D01*
X142500Y226100D02*
X295214D01*
X139197Y228100D02*
X297000D01*
X154947Y223850D02*
X244050D01*
X295214Y226100D02*
X307347Y213968D01*
X136300Y219900D02*
X142500Y226100D01*
X130897Y219800D02*
X139197Y228100D01*
X244050Y223850D02*
X263200Y204700D01*
X150197Y219100D02*
X154947Y223850D01*
X45300Y160346D02*
X50800Y154847D01*
X57653D02*
X62500Y150000D01*
X50800Y154847D02*
X57653D01*
X190600Y274100D02*
X226300Y238400D01*
X83600Y274100D02*
X190600D01*
X81600Y276700D02*
X196100D01*
X238100Y234700D02*
X238400D01*
X196100Y276700D02*
X238100Y234700D01*
X297000Y228100D02*
X309347Y215754D01*
X260200Y62000D02*
Y202100D01*
X263200Y69300D02*
Y204700D01*
X41600Y150000D02*
X46753Y144846D01*
X57653D01*
X62500Y140000D01*
X57653Y184846D02*
X67554D01*
X75400Y177000D01*
X52500Y190000D02*
X57653Y184846D01*
X70800Y152340D02*
Y157700D01*
X81686Y108307D02*
X87093D01*
X70800Y152340D02*
X79292Y143848D01*
X99122D02*
X112574Y157300D01*
X132403D01*
X140603Y149100D02*
X146500D01*
X132403Y157300D02*
X140603Y149100D01*
X75400Y157740D02*
X79440Y153700D01*
X75400Y157740D02*
Y177000D01*
X79292Y143848D02*
X99122D01*
X81299Y158695D02*
X109400Y186795D01*
X81299Y168695D02*
X107400Y194795D01*
X109400Y186795D02*
Y225800D01*
X131425Y238200D02*
X131500D01*
X107400Y194795D02*
Y232100D01*
X95278Y192674D02*
Y222807D01*
X81299Y178695D02*
X95278Y192674D01*
X172900Y124600D02*
Y136700D01*
X255000Y86000D02*
X255200Y85800D01*
X207000Y86000D02*
X255000D01*
X260200Y62000D02*
X292200Y30000D01*
X263200Y69300D02*
X292500Y40000D01*
X185300Y107700D02*
X207000Y86000D01*
X185300Y107700D02*
Y127200D01*
X293400Y11900D02*
X297346Y15846D01*
Y45153D01*
X292500Y50000D02*
X297346Y45153D01*
X81299Y138694D02*
X81302Y138697D01*
X81299Y98694D02*
X91793Y88200D01*
X76859Y63598D02*
X83410D01*
X81299Y108694D02*
X81686Y108307D01*
X50800Y75153D02*
X57653D01*
X62500Y80000D01*
X117600Y181700D02*
X136500D01*
X309347Y36847D02*
Y215754D01*
X302500Y30000D02*
X309347Y36847D01*
X307347Y44846D02*
Y213968D01*
X126500Y219800D02*
X130897D01*
X302500Y40000D02*
X307347Y44846D01*
X146400Y219100D02*
X150197D01*
X292200Y30000D02*
X292500D01*
X109400Y225800D02*
X121800Y238200D01*
X95278Y222807D02*
X121257Y248786D01*
X107400Y232100D02*
X120200Y244900D01*
X93278Y223635D02*
X120429Y250786D01*
X120200Y244900D02*
X125200D01*
X131500Y238600D01*
Y238200D02*
Y238600D01*
X131214Y248786D02*
X141300Y238700D01*
X139314Y250786D02*
X151200Y238900D01*
X93278Y200674D02*
Y223635D01*
X121257Y248786D02*
X131214D01*
X120429Y250786D02*
X139314D01*
X81300Y188695D02*
X93278Y200674D01*
X23498Y90000D02*
X17500D01*
Y93999D01*
X21499Y96998D02*
Y98997D01*
X20499Y99997D01*
X17500D01*
Y96998D01*
X18500Y95998D01*
X19499Y96998D01*
Y99997D01*
X17500Y101996D02*
X21499D01*
Y104995D01*
X20499Y105995D01*
X17500D01*
X23498Y111993D02*
X17500D01*
Y108994D01*
X18500Y107994D01*
X20499D01*
X21499Y108994D01*
Y111993D01*
X17500Y113992D02*
Y115992D01*
Y114992D01*
X21499D01*
Y113992D01*
X17500Y124989D02*
X21499D01*
X23498Y126988D01*
X21499Y128987D01*
X17500D01*
X20499D01*
Y124989D01*
X17500Y130987D02*
X21499D01*
Y133986D01*
X20499Y134985D01*
X17500D01*
X23498Y140983D02*
X17500D01*
Y137985D01*
X18500Y136985D01*
X20499D01*
X21499Y137985D01*
Y140983D01*
Y142983D02*
X17500D01*
X19499D01*
X20499Y143983D01*
X21499Y144982D01*
Y145982D01*
Y149981D02*
Y151980D01*
X20499Y152980D01*
X17500D01*
Y149981D01*
X18500Y148981D01*
X19499Y149981D01*
Y152980D01*
X17500Y154979D02*
Y157978D01*
X18500Y158978D01*
X19499Y157978D01*
Y155979D01*
X20499Y154979D01*
X21499Y155979D01*
Y158978D01*
D37*
X20757Y259415D02*
D03*
Y249572D02*
D03*
Y269257D02*
D03*
D38*
X81300Y258695D02*
D03*
X212700Y207200D02*
D03*
D39*
X81300Y248695D02*
D03*
Y238695D02*
D03*
Y228695D02*
D03*
X81300Y218695D02*
D03*
Y208695D02*
D03*
Y198695D02*
D03*
Y188695D02*
D03*
X81299Y178695D02*
D03*
Y168695D02*
D03*
Y158695D02*
D03*
Y148695D02*
D03*
X81299Y138694D02*
D03*
Y128694D02*
D03*
Y118694D02*
D03*
Y108694D02*
D03*
X81299Y98694D02*
D03*
Y88694D02*
D03*
Y78694D02*
D03*
Y68694D02*
D03*
X302500Y190000D02*
D03*
Y200000D02*
D03*
Y170000D02*
D03*
Y180000D02*
D03*
Y120000D02*
D03*
Y130000D02*
D03*
Y110000D02*
D03*
Y150000D02*
D03*
Y160000D02*
D03*
Y140000D02*
D03*
X292500Y170000D02*
D03*
Y180000D02*
D03*
Y160000D02*
D03*
Y200000D02*
D03*
Y210000D02*
D03*
Y190000D02*
D03*
Y120000D02*
D03*
Y130000D02*
D03*
Y110000D02*
D03*
Y150000D02*
D03*
X62500D02*
D03*
X292500Y140000D02*
D03*
X302500Y70000D02*
D03*
Y80000D02*
D03*
Y90000D02*
D03*
Y30000D02*
D03*
Y40000D02*
D03*
Y20000D02*
D03*
Y50000D02*
D03*
Y60000D02*
D03*
Y100000D02*
D03*
X292500Y90000D02*
D03*
Y80000D02*
D03*
Y100000D02*
D03*
Y30000D02*
D03*
Y40000D02*
D03*
Y20000D02*
D03*
Y60000D02*
D03*
Y70000D02*
D03*
Y50000D02*
D03*
X62500Y190000D02*
D03*
Y200000D02*
D03*
Y180000D02*
D03*
Y120000D02*
D03*
Y130000D02*
D03*
Y110000D02*
D03*
Y160000D02*
D03*
Y170000D02*
D03*
Y140000D02*
D03*
X52500Y180000D02*
D03*
Y170000D02*
D03*
Y200000D02*
D03*
Y210000D02*
D03*
Y190000D02*
D03*
Y120000D02*
D03*
Y130000D02*
D03*
Y110000D02*
D03*
Y150000D02*
D03*
Y160000D02*
D03*
Y140000D02*
D03*
X62500Y70000D02*
D03*
Y80000D02*
D03*
Y60000D02*
D03*
Y90000D02*
D03*
Y30000D02*
D03*
Y40000D02*
D03*
Y20000D02*
D03*
Y50000D02*
D03*
Y100000D02*
D03*
X52500Y90000D02*
D03*
Y80000D02*
D03*
Y100000D02*
D03*
Y30000D02*
D03*
Y40000D02*
D03*
Y20000D02*
D03*
Y60000D02*
D03*
Y70000D02*
D03*
Y50000D02*
D03*
X272700Y177200D02*
D03*
Y187200D02*
D03*
Y197200D02*
D03*
Y207200D02*
D03*
Y167200D02*
D03*
Y157200D02*
D03*
Y147200D02*
D03*
Y137200D02*
D03*
Y127200D02*
D03*
Y117200D02*
D03*
Y107200D02*
D03*
Y97200D02*
D03*
X212700Y97200D02*
D03*
Y107200D02*
D03*
Y117200D02*
D03*
Y127200D02*
D03*
Y137200D02*
D03*
Y147200D02*
D03*
Y157200D02*
D03*
Y167200D02*
D03*
Y197200D02*
D03*
Y187200D02*
D03*
Y177200D02*
D03*
D40*
X276969Y301491D02*
D03*
Y25900D02*
D03*
X81300Y301491D02*
D03*
Y25900D02*
D03*
D41*
X301700Y246700D02*
D03*
X314200Y266700D02*
D03*
X326700Y246700D02*
D03*
D42*
X302500Y210000D02*
D03*
X62500D02*
D03*
D43*
X20000Y299213D02*
D03*
X335000D02*
D03*
Y20000D02*
D03*
X20000D02*
D03*
D44*
X156300Y218700D02*
D03*
X151350Y111759D02*
D03*
X130850Y153550D02*
D03*
X97000Y88200D02*
D03*
X146600Y87400D02*
D03*
X156300Y85900D02*
D03*
X73300Y73600D02*
D03*
X156600Y108300D02*
D03*
X92900Y138700D02*
D03*
X100600Y129200D02*
D03*
X103600Y91800D02*
D03*
X214600Y238500D02*
D03*
X226300Y238400D02*
D03*
X238400Y234700D02*
D03*
X70800Y157700D02*
D03*
X136400Y147600D02*
D03*
X146500Y149100D02*
D03*
X172900Y136700D02*
D03*
X255200Y85800D02*
D03*
X185300Y127200D02*
D03*
X136300Y107600D02*
D03*
X126600Y128300D02*
D03*
X136500Y181700D02*
D03*
X146400Y219100D02*
D03*
X136300Y219900D02*
D03*
X126500Y219800D02*
D03*
X121800Y238200D02*
D03*
X131500D02*
D03*
X151200Y238900D02*
D03*
X141300Y238700D02*
D03*
D45*
X176000Y173300D02*
D03*
M02*
