G04*
G04 #@! TF.GenerationSoftware,Altium Limited,Altium Designer,24.2.2 (26)*
G04*
G04 Layer_Physical_Order=1*
G04 Layer_Color=255*
%FSLAX25Y25*%
%MOIN*%
G70*
G04*
G04 #@! TF.SameCoordinates,39AFF50E-F897-457A-A01D-6F320B20273F*
G04*
G04*
G04 #@! TF.FilePolarity,Positive*
G04*
G01*
G75*
%ADD14C,0.01000*%
%ADD30R,0.03937X0.05118*%
%ADD31R,0.04724X0.02559*%
%ADD32O,0.02559X0.08268*%
%ADD33R,0.07008X0.12402*%
%ADD34R,0.05118X0.03937*%
%ADD35R,0.07087X0.08268*%
%ADD36C,0.03000*%
%ADD37C,0.04724*%
%ADD38R,0.06693X0.06693*%
%ADD39C,0.06693*%
%ADD40C,0.19685*%
%ADD41C,0.18000*%
%ADD42R,0.06693X0.06693*%
%ADD43C,0.23622*%
%ADD44C,0.04500*%
%ADD45C,0.05000*%
G36*
X349034Y302086D02*
X348534Y302047D01*
X348471Y302447D01*
X347799Y304514D01*
X346812Y306451D01*
X345534Y308210D01*
X343997Y309747D01*
X342238Y311025D01*
X340302Y312012D01*
X338234Y312684D01*
X336087Y313024D01*
X333913D01*
X331766Y312684D01*
X329698Y312012D01*
X327762Y311025D01*
X326003Y309747D01*
X324465Y308210D01*
X323188Y306451D01*
X322201Y304514D01*
X321529Y302447D01*
X321189Y300300D01*
Y298126D01*
X321529Y295978D01*
X322201Y293911D01*
X323188Y291974D01*
X324465Y290215D01*
X326003Y288678D01*
X327762Y287400D01*
X329698Y286413D01*
X331766Y285742D01*
X333913Y285402D01*
X336087D01*
X338234Y285742D01*
X340302Y286413D01*
X342238Y287400D01*
X343997Y288678D01*
X345534Y290215D01*
X346812Y291974D01*
X347799Y293911D01*
X348471Y295978D01*
X348534Y296378D01*
X349034Y296339D01*
Y22874D01*
X348534Y22834D01*
X348471Y23234D01*
X347799Y25302D01*
X346812Y27239D01*
X345534Y28997D01*
X343997Y30534D01*
X342238Y31812D01*
X340302Y32799D01*
X338234Y33471D01*
X336087Y33811D01*
X333913D01*
X331766Y33471D01*
X329698Y32799D01*
X327762Y31812D01*
X326003Y30534D01*
X324465Y28997D01*
X323188Y27239D01*
X322201Y25302D01*
X321529Y23234D01*
X321189Y21087D01*
Y18913D01*
X321529Y16766D01*
X322201Y14698D01*
X323188Y12762D01*
X324465Y11003D01*
X326003Y9465D01*
X327762Y8188D01*
X329698Y7201D01*
X331766Y6529D01*
X332166Y6466D01*
X332126Y5966D01*
X22874D01*
X22834Y6466D01*
X23234Y6529D01*
X25302Y7201D01*
X27239Y8188D01*
X28997Y9465D01*
X30534Y11003D01*
X31812Y12762D01*
X32799Y14698D01*
X33471Y16766D01*
X33811Y18913D01*
Y21087D01*
X33471Y23234D01*
X32799Y25302D01*
X31812Y27239D01*
X30534Y28997D01*
X28997Y30534D01*
X27239Y31812D01*
X25302Y32799D01*
X23234Y33471D01*
X21087Y33811D01*
X18913D01*
X16766Y33471D01*
X14698Y32799D01*
X12762Y31812D01*
X11003Y30534D01*
X9465Y28997D01*
X8188Y27239D01*
X7201Y25302D01*
X6529Y23234D01*
X6466Y22834D01*
X5966Y22874D01*
Y296339D01*
X6466Y296378D01*
X6529Y295978D01*
X7201Y293911D01*
X8188Y291974D01*
X9465Y290215D01*
X11003Y288678D01*
X12762Y287400D01*
X14698Y286413D01*
X16766Y285742D01*
X18913Y285402D01*
X21087D01*
X23234Y285742D01*
X25302Y286413D01*
X27239Y287400D01*
X28997Y288678D01*
X30534Y290215D01*
X31812Y291974D01*
X32799Y293911D01*
X33471Y295978D01*
X33811Y298126D01*
Y300300D01*
X33471Y302447D01*
X32799Y304514D01*
X31812Y306451D01*
X30534Y308210D01*
X28997Y309747D01*
X27239Y311025D01*
X25302Y312012D01*
X23234Y312684D01*
X21087Y313024D01*
X18913D01*
X16766Y312684D01*
X14698Y312012D01*
X12762Y311025D01*
X11003Y309747D01*
X9465Y308210D01*
X8188Y306451D01*
X7201Y304514D01*
X6529Y302447D01*
X6466Y302047D01*
X5966Y302086D01*
Y316434D01*
X349034D01*
Y302086D01*
D02*
G37*
%LPC*%
G36*
X277901Y313333D02*
X276037D01*
X274196Y313041D01*
X272423Y312466D01*
X270762Y311619D01*
X269254Y310524D01*
X267936Y309205D01*
X266841Y307697D01*
X265994Y306036D01*
X265418Y304264D01*
X265127Y302423D01*
Y300558D01*
X265418Y298717D01*
X265994Y296945D01*
X266841Y295284D01*
X267936Y293776D01*
X269254Y292458D01*
X270762Y291362D01*
X272423Y290516D01*
X274196Y289940D01*
X276037Y289648D01*
X277901D01*
X279742Y289940D01*
X281515Y290516D01*
X283176Y291362D01*
X284684Y292458D01*
X286002Y293776D01*
X287098Y295284D01*
X287944Y296945D01*
X288520Y298717D01*
X288812Y300558D01*
Y302423D01*
X288520Y304264D01*
X287944Y306036D01*
X287098Y307697D01*
X286002Y309205D01*
X284684Y310524D01*
X283176Y311619D01*
X281515Y312466D01*
X279742Y313041D01*
X277901Y313333D01*
D02*
G37*
G36*
X82232D02*
X80368D01*
X78527Y313041D01*
X76754Y312466D01*
X75093Y311619D01*
X73585Y310524D01*
X72267Y309205D01*
X71171Y307697D01*
X70325Y306036D01*
X69749Y304264D01*
X69458Y302423D01*
Y300558D01*
X69749Y298717D01*
X70325Y296945D01*
X71171Y295284D01*
X72267Y293776D01*
X73585Y292458D01*
X75093Y291362D01*
X76754Y290516D01*
X78527Y289940D01*
X80368Y289648D01*
X82232D01*
X84073Y289940D01*
X85846Y290516D01*
X87507Y291362D01*
X89015Y292458D01*
X90333Y293776D01*
X91429Y295284D01*
X92275Y296945D01*
X92851Y298717D01*
X93142Y300558D01*
Y302423D01*
X92851Y304264D01*
X92275Y306036D01*
X91429Y307697D01*
X90333Y309205D01*
X89015Y310524D01*
X87507Y311619D01*
X85846Y312466D01*
X84073Y313041D01*
X82232Y313333D01*
D02*
G37*
G36*
X21348Y272564D02*
Y269848D01*
X24064D01*
X23876Y270549D01*
X23435Y271312D01*
X22812Y271935D01*
X22049Y272376D01*
X21348Y272564D01*
D02*
G37*
G36*
X20167D02*
X19466Y272376D01*
X18703Y271935D01*
X18080Y271312D01*
X17639Y270549D01*
X17451Y269848D01*
X20167D01*
Y272564D01*
D02*
G37*
G36*
X271638Y272618D02*
X267701D01*
Y268091D01*
X271638D01*
Y272618D01*
D02*
G37*
G36*
X266520D02*
X262583D01*
Y268091D01*
X266520D01*
Y272618D01*
D02*
G37*
G36*
X315183Y276684D02*
X314791D01*
Y267290D01*
X324184D01*
Y267683D01*
X323801Y269612D01*
X323048Y271429D01*
X321955Y273065D01*
X320565Y274455D01*
X318929Y275548D01*
X317112Y276301D01*
X315183Y276684D01*
D02*
G37*
G36*
X313610D02*
X313217D01*
X311288Y276301D01*
X309471Y275548D01*
X307835Y274455D01*
X306445Y273065D01*
X305352Y271429D01*
X304599Y269612D01*
X304216Y267683D01*
Y267290D01*
X313610D01*
Y276684D01*
D02*
G37*
G36*
X24064Y268667D02*
X21348D01*
Y265951D01*
X22049Y266139D01*
X22812Y266580D01*
X23435Y267203D01*
X23876Y267966D01*
X24064Y268667D01*
D02*
G37*
G36*
X20167D02*
X17451D01*
X17639Y267966D01*
X18080Y267203D01*
X18703Y266580D01*
X19466Y266139D01*
X20167Y265951D01*
Y268667D01*
D02*
G37*
G36*
X271638Y266910D02*
X267701D01*
Y262382D01*
X271638D01*
Y266910D01*
D02*
G37*
G36*
X266520D02*
X262583D01*
Y262382D01*
X266520D01*
Y266910D01*
D02*
G37*
G36*
X324184Y266109D02*
X314791D01*
Y256716D01*
X315183D01*
X317112Y257099D01*
X318929Y257852D01*
X320565Y258945D01*
X321955Y260335D01*
X323048Y261971D01*
X323801Y263788D01*
X324184Y265717D01*
Y266109D01*
D02*
G37*
G36*
X313610D02*
X304216D01*
Y265717D01*
X304599Y263788D01*
X305352Y261971D01*
X306445Y260335D01*
X307835Y258945D01*
X309471Y257852D01*
X311288Y257099D01*
X313217Y256716D01*
X313610D01*
Y266109D01*
D02*
G37*
G36*
X254543Y273634D02*
X243457D01*
Y261366D01*
X245520D01*
Y255601D01*
X243596D01*
Y251530D01*
X183062D01*
X180096Y254496D01*
X179365Y255057D01*
X178514Y255410D01*
X177600Y255530D01*
X173442D01*
Y256559D01*
X171233D01*
X165996Y261796D01*
X165265Y262357D01*
X164414Y262710D01*
X163500Y262830D01*
X86646D01*
Y264042D01*
X75954D01*
Y253349D01*
X80003D01*
X80069Y252849D01*
X79628Y252731D01*
X78641Y252161D01*
X77835Y251354D01*
X77264Y250367D01*
X76975Y249286D01*
X81300D01*
X85625D01*
X85336Y250367D01*
X84765Y251354D01*
X83959Y252161D01*
X82972Y252731D01*
X82531Y252849D01*
X82597Y253349D01*
X86646D01*
Y255770D01*
X157632D01*
Y247441D01*
X158951D01*
Y234232D01*
X158451Y233985D01*
X158154Y234213D01*
X157356Y234544D01*
X156500Y234657D01*
X155644Y234544D01*
X154846Y234213D01*
X154399Y233870D01*
X153899Y234117D01*
Y235589D01*
X154601Y236290D01*
X155160Y237260D01*
X155450Y238340D01*
Y239459D01*
X155160Y240540D01*
X154601Y241510D01*
X153810Y242301D01*
X152840Y242860D01*
X151760Y243150D01*
X150640D01*
X149560Y242860D01*
X148590Y242301D01*
X147799Y241510D01*
X147240Y240540D01*
X146950Y239459D01*
Y238340D01*
X147240Y237260D01*
X147799Y236290D01*
X148590Y235499D01*
X148801Y235378D01*
Y234282D01*
X148353Y234061D01*
X148154Y234213D01*
X147356Y234544D01*
X146500Y234657D01*
X145644Y234544D01*
X144846Y234213D01*
X144449Y233909D01*
X143949Y234155D01*
Y235339D01*
X144701Y236090D01*
X145260Y237060D01*
X145550Y238141D01*
Y239260D01*
X145260Y240340D01*
X144701Y241310D01*
X143910Y242101D01*
X142940Y242660D01*
X141859Y242950D01*
X140741D01*
X139660Y242660D01*
X138690Y242101D01*
X137899Y241310D01*
X137340Y240340D01*
X137050Y239260D01*
Y238141D01*
X137340Y237060D01*
X137899Y236090D01*
X138690Y235299D01*
X138851Y235206D01*
Y234309D01*
X138351Y234062D01*
X138154Y234213D01*
X137356Y234544D01*
X136500Y234657D01*
X135644Y234544D01*
X134846Y234213D01*
X134697Y234099D01*
X134249Y234321D01*
Y234939D01*
X134901Y235590D01*
X135460Y236560D01*
X135750Y237641D01*
Y238759D01*
X135460Y239840D01*
X134901Y240810D01*
X134110Y241601D01*
X133140Y242160D01*
X132060Y242450D01*
X130940D01*
X129860Y242160D01*
X128890Y241601D01*
X128099Y240810D01*
X127540Y239840D01*
X127250Y238759D01*
Y237641D01*
X127540Y236560D01*
X128099Y235590D01*
X128890Y234799D01*
X129151Y234649D01*
Y234071D01*
X128654Y233834D01*
X128645Y233837D01*
X128154Y234213D01*
X127356Y234544D01*
X126500Y234657D01*
X125644Y234544D01*
X124846Y234213D01*
X124785Y234167D01*
X124309Y234399D01*
X124304Y234738D01*
X124410Y234799D01*
X125201Y235590D01*
X125760Y236560D01*
X126050Y237641D01*
Y238759D01*
X125760Y239840D01*
X125201Y240810D01*
X124410Y241601D01*
X123440Y242160D01*
X122360Y242450D01*
X121240D01*
X120160Y242160D01*
X119190Y241601D01*
X118399Y240810D01*
X117840Y239840D01*
X117550Y238759D01*
Y237641D01*
X117840Y236560D01*
X118399Y235590D01*
X119101Y234889D01*
Y233610D01*
X118680Y233061D01*
X118214Y232973D01*
X118095Y233005D01*
X117383Y233481D01*
X117091Y233540D01*
Y228495D01*
Y223449D01*
X117383Y223508D01*
X118095Y223984D01*
X118214Y224016D01*
X118680Y223928D01*
X119161Y223301D01*
X119846Y222776D01*
X120644Y222445D01*
X121500Y222332D01*
X122356Y222445D01*
X122601Y222546D01*
X122949Y222149D01*
X122540Y221440D01*
X122250Y220359D01*
Y219240D01*
X122540Y218160D01*
X123099Y217190D01*
X123890Y216399D01*
X124860Y215840D01*
X125217Y215744D01*
X125151Y215244D01*
X98356D01*
X86427Y227173D01*
X86646Y227991D01*
Y229399D01*
X86282Y230759D01*
X85578Y231978D01*
X84583Y232974D01*
X83833Y233407D01*
Y233984D01*
X84583Y234417D01*
X85578Y235413D01*
X86282Y236632D01*
X86646Y237991D01*
Y239399D01*
X86282Y240759D01*
X85578Y241978D01*
X84583Y242973D01*
X83364Y243677D01*
X82301Y243962D01*
Y244480D01*
X82972Y244660D01*
X83959Y245230D01*
X84765Y246036D01*
X85336Y247024D01*
X85625Y248105D01*
X81300D01*
X76975D01*
X77264Y247024D01*
X76838Y246762D01*
X62383Y261217D01*
X61556Y261770D01*
X60580Y261964D01*
X24323D01*
X24248Y262093D01*
X23436Y262906D01*
X22441Y263480D01*
X21332Y263777D01*
X20183D01*
X19074Y263480D01*
X18079Y262906D01*
X17267Y262093D01*
X16693Y261099D01*
X16395Y259989D01*
Y258841D01*
X16693Y257731D01*
X17267Y256736D01*
X18079Y255924D01*
X19074Y255350D01*
X20183Y255053D01*
X21332D01*
X22441Y255350D01*
X23436Y255924D01*
X24248Y256736D01*
X24323Y256866D01*
X59525D01*
X76173Y240218D01*
X75954Y239399D01*
Y237991D01*
X76318Y236632D01*
X77022Y235413D01*
X78017Y234417D01*
X78767Y233984D01*
Y233407D01*
X78017Y232974D01*
X77022Y231978D01*
X76318Y230759D01*
X75954Y229399D01*
Y227991D01*
X76318Y226632D01*
X77022Y225413D01*
X78017Y224417D01*
X78768Y223984D01*
Y223407D01*
X78017Y222973D01*
X77021Y221978D01*
X76318Y220759D01*
X75953Y219399D01*
Y217991D01*
X76318Y216631D01*
X77021Y215412D01*
X78017Y214417D01*
X78767Y213984D01*
Y213406D01*
X78017Y212973D01*
X77021Y211978D01*
X76318Y210759D01*
X75953Y209399D01*
Y207991D01*
X76007Y207792D01*
X75702Y207395D01*
X67847D01*
Y215347D01*
X57153D01*
Y213584D01*
X56653Y213407D01*
X55783Y214278D01*
X54564Y214982D01*
X53204Y215347D01*
X51796D01*
X50436Y214982D01*
X49217Y214278D01*
X48222Y213283D01*
X47518Y212064D01*
X47154Y210704D01*
Y209296D01*
X47518Y207936D01*
X48222Y206717D01*
X49217Y205722D01*
X49967Y205289D01*
Y204711D01*
X49217Y204278D01*
X48222Y203283D01*
X47518Y202064D01*
X47154Y200704D01*
Y199296D01*
X47518Y197936D01*
X48222Y196717D01*
X49217Y195722D01*
X49967Y195289D01*
Y194711D01*
X49217Y194278D01*
X48222Y193283D01*
X47518Y192064D01*
X47154Y190704D01*
Y189296D01*
X47518Y187936D01*
X48222Y186717D01*
X49217Y185722D01*
X49967Y185289D01*
Y184711D01*
X49217Y184278D01*
X48222Y183283D01*
X47518Y182064D01*
X47154Y180704D01*
Y179296D01*
X47518Y177936D01*
X48222Y176717D01*
X49217Y175722D01*
X49967Y175289D01*
Y174711D01*
X49217Y174278D01*
X48222Y173283D01*
X47518Y172064D01*
X47154Y170704D01*
Y169296D01*
X47518Y167936D01*
X48222Y166717D01*
X49217Y165722D01*
X49967Y165289D01*
Y164711D01*
X49217Y164278D01*
X48222Y163283D01*
X47518Y162064D01*
X47154Y160704D01*
Y159296D01*
X47518Y157936D01*
X48222Y156717D01*
X49217Y155722D01*
X49967Y155289D01*
Y154711D01*
X49217Y154278D01*
X48222Y153283D01*
X47518Y152064D01*
X47154Y150704D01*
Y149296D01*
X47518Y147936D01*
X48222Y146717D01*
X49217Y145722D01*
X49967Y145289D01*
Y144711D01*
X49217Y144278D01*
X48222Y143283D01*
X47518Y142064D01*
X47154Y140704D01*
Y139296D01*
X47518Y137936D01*
X48222Y136717D01*
X49217Y135722D01*
X49967Y135289D01*
Y134711D01*
X49217Y134278D01*
X48222Y133283D01*
X47518Y132064D01*
X47154Y130704D01*
Y129296D01*
X47518Y127936D01*
X48222Y126717D01*
X49217Y125722D01*
X50436Y125018D01*
X51499Y124733D01*
Y124215D01*
X50828Y124036D01*
X49841Y123465D01*
X49035Y122659D01*
X48464Y121672D01*
X48407Y121457D01*
X47924Y121327D01*
X43718Y125533D01*
Y229161D01*
X43524Y230136D01*
X42972Y230963D01*
X25081Y248854D01*
X25120Y248998D01*
Y250147D01*
X24822Y251256D01*
X24248Y252251D01*
X23436Y253063D01*
X22441Y253637D01*
X21332Y253935D01*
X20183D01*
X19074Y253637D01*
X18079Y253063D01*
X17267Y252251D01*
X16693Y251256D01*
X16395Y250147D01*
Y248998D01*
X16693Y247889D01*
X17267Y246894D01*
X18079Y246082D01*
X19074Y245508D01*
X20183Y245210D01*
X21332D01*
X21476Y245249D01*
X38620Y228105D01*
Y124477D01*
X38814Y123502D01*
X39367Y122675D01*
X48490Y113551D01*
X48222Y113283D01*
X47518Y112064D01*
X47154Y110704D01*
Y109296D01*
X47518Y107936D01*
X48222Y106717D01*
X49217Y105722D01*
X49967Y105289D01*
Y104711D01*
X49217Y104278D01*
X48222Y103283D01*
X47518Y102064D01*
X47154Y100704D01*
Y99296D01*
X47518Y97936D01*
X48222Y96717D01*
X49217Y95722D01*
X49967Y95289D01*
Y94711D01*
X49217Y94278D01*
X48222Y93283D01*
X47518Y92064D01*
X47154Y90704D01*
Y89296D01*
X47518Y87936D01*
X48222Y86717D01*
X49217Y85722D01*
X49967Y85289D01*
Y84711D01*
X49217Y84278D01*
X48222Y83283D01*
X47518Y82064D01*
X47154Y80704D01*
Y79296D01*
X47518Y77936D01*
X48222Y76717D01*
X49217Y75722D01*
X49967Y75289D01*
Y74711D01*
X49217Y74278D01*
X48222Y73283D01*
X47518Y72064D01*
X47154Y70704D01*
Y69296D01*
X47518Y67936D01*
X48222Y66717D01*
X49217Y65722D01*
X49967Y65289D01*
Y64711D01*
X49217Y64278D01*
X48222Y63283D01*
X47518Y62064D01*
X47154Y60704D01*
Y59296D01*
X47518Y57936D01*
X48222Y56717D01*
X49217Y55722D01*
X49967Y55289D01*
Y54711D01*
X49217Y54278D01*
X48222Y53283D01*
X47518Y52064D01*
X47154Y50704D01*
Y49296D01*
X47518Y47936D01*
X48222Y46717D01*
X49217Y45722D01*
X49967Y45289D01*
Y44711D01*
X49217Y44278D01*
X48222Y43283D01*
X47518Y42064D01*
X47154Y40704D01*
Y39296D01*
X47518Y37936D01*
X48222Y36717D01*
X49217Y35722D01*
X49967Y35289D01*
Y34711D01*
X49217Y34278D01*
X48222Y33283D01*
X47518Y32064D01*
X47154Y30704D01*
Y29296D01*
X47518Y27936D01*
X48222Y26717D01*
X49217Y25722D01*
X49967Y25289D01*
Y24711D01*
X49217Y24278D01*
X48222Y23283D01*
X47518Y22064D01*
X47154Y20704D01*
Y19296D01*
X47518Y17936D01*
X48222Y16717D01*
X49217Y15722D01*
X50436Y15018D01*
X51796Y14654D01*
X53204D01*
X54564Y15018D01*
X55783Y15722D01*
X56778Y16717D01*
X57211Y17467D01*
X57789D01*
X58222Y16717D01*
X59217Y15722D01*
X60436Y15018D01*
X61796Y14654D01*
X63204D01*
X64564Y15018D01*
X65783Y15722D01*
X66778Y16717D01*
X67482Y17936D01*
X67847Y19296D01*
Y20704D01*
X67482Y22064D01*
X66778Y23283D01*
X65783Y24278D01*
X65033Y24711D01*
Y25289D01*
X65783Y25722D01*
X66778Y26717D01*
X67482Y27936D01*
X67847Y29296D01*
Y30704D01*
X67482Y32064D01*
X66778Y33283D01*
X65783Y34278D01*
X65033Y34711D01*
Y35289D01*
X65783Y35722D01*
X66778Y36717D01*
X67482Y37936D01*
X67847Y39296D01*
Y40704D01*
X67482Y42064D01*
X66778Y43283D01*
X65783Y44278D01*
X65033Y44711D01*
Y45289D01*
X65783Y45722D01*
X66778Y46717D01*
X67482Y47936D01*
X67847Y49296D01*
Y50704D01*
X67482Y52064D01*
X66778Y53283D01*
X66510Y53551D01*
X69902Y56944D01*
X70251Y57465D01*
X70751Y57314D01*
Y51200D01*
X70945Y50225D01*
X71498Y49398D01*
X81298Y39598D01*
X82125Y39045D01*
X83100Y38851D01*
X109300D01*
X110275Y39045D01*
X111102Y39598D01*
X114002Y42498D01*
X114555Y43325D01*
X114638Y43740D01*
X124042D01*
Y52858D01*
X122823D01*
Y59895D01*
X124859D01*
Y67831D01*
X115741D01*
Y66549D01*
X108462D01*
Y67279D01*
X99738D01*
Y60720D01*
X108462D01*
Y61451D01*
X115741D01*
Y59895D01*
X117725D01*
Y52858D01*
X108231D01*
Y43949D01*
X101805D01*
Y52859D01*
X100386D01*
Y54363D01*
X100192Y55339D01*
X99639Y56165D01*
X96349Y59456D01*
Y64461D01*
X98013D01*
Y71020D01*
X89289D01*
Y64461D01*
X91251D01*
Y58400D01*
X91445Y57424D01*
X91998Y56598D01*
X95236Y53359D01*
X95163Y52859D01*
X85994D01*
Y52364D01*
X85533Y52172D01*
X83649Y54056D01*
Y63877D01*
X84582Y64416D01*
X85577Y65411D01*
X86281Y66630D01*
X86645Y67990D01*
Y69398D01*
X86281Y70758D01*
X85577Y71977D01*
X84582Y72972D01*
X83831Y73405D01*
Y73983D01*
X84582Y74416D01*
X85330Y75164D01*
X116694D01*
X116757Y74690D01*
X116757Y74664D01*
Y72328D01*
X120300D01*
X123843D01*
Y74664D01*
X123843Y74690D01*
X123906Y75164D01*
X168394D01*
X169308Y75284D01*
X170159Y75637D01*
X170890Y76198D01*
X179996Y85304D01*
X180557Y86035D01*
X180910Y86886D01*
X181030Y87800D01*
Y94932D01*
X182059D01*
Y95370D01*
X184300D01*
X185214Y95490D01*
X186065Y95843D01*
X186796Y96404D01*
X198096Y107704D01*
X198657Y108435D01*
X199010Y109286D01*
X199130Y110200D01*
Y244470D01*
X243596D01*
Y239199D01*
X245570D01*
Y237092D01*
X245108Y236900D01*
X241756Y240252D01*
X240929Y240805D01*
X239953Y240999D01*
X229707D01*
X229701Y241010D01*
X228910Y241801D01*
X227940Y242360D01*
X226859Y242650D01*
X225741D01*
X224660Y242360D01*
X223690Y241801D01*
X222899Y241010D01*
X222340Y240040D01*
X222050Y238960D01*
Y237841D01*
X222340Y236760D01*
X222899Y235790D01*
X223690Y234999D01*
X224660Y234440D01*
X225741Y234150D01*
X226859D01*
X227940Y234440D01*
X228910Y234999D01*
X229701Y235790D01*
X229765Y235901D01*
X233911D01*
X234216Y235504D01*
X234150Y235260D01*
Y234140D01*
X234440Y233060D01*
X234999Y232090D01*
X235790Y231299D01*
X235851Y231264D01*
Y211500D01*
X236045Y210524D01*
X236598Y209697D01*
X267573Y178722D01*
X267354Y177903D01*
Y176858D01*
X266853Y176651D01*
X217149Y226356D01*
Y235064D01*
X217210Y235099D01*
X218001Y235890D01*
X218560Y236860D01*
X218850Y237941D01*
Y239059D01*
X218560Y240140D01*
X218001Y241110D01*
X217210Y241901D01*
X216240Y242460D01*
X215160Y242750D01*
X214040D01*
X212960Y242460D01*
X211990Y241901D01*
X211199Y241110D01*
X210640Y240140D01*
X210350Y239059D01*
Y237941D01*
X210640Y236860D01*
X211199Y235890D01*
X211990Y235099D01*
X212051Y235064D01*
Y225300D01*
X212245Y224324D01*
X212798Y223497D01*
X267573Y168722D01*
X267354Y167903D01*
Y166496D01*
X267718Y165136D01*
X268422Y163917D01*
X269417Y162922D01*
X270167Y162488D01*
Y161911D01*
X269417Y161478D01*
X268422Y160483D01*
X267718Y159263D01*
X267354Y157904D01*
Y156496D01*
X267718Y155136D01*
X268422Y153917D01*
X269417Y152921D01*
X270167Y152488D01*
Y151911D01*
X269417Y151478D01*
X268422Y150482D01*
X267718Y149263D01*
X267354Y147904D01*
Y146858D01*
X266853Y146651D01*
X217827Y195678D01*
X218046Y196496D01*
Y197904D01*
X217682Y199264D01*
X216978Y200483D01*
X216108Y201354D01*
X216284Y201853D01*
X218046D01*
Y212546D01*
X207353D01*
Y201853D01*
X209116D01*
X209293Y201354D01*
X208422Y200483D01*
X207718Y199264D01*
X207353Y197904D01*
Y196496D01*
X207718Y195136D01*
X208422Y193917D01*
X209417Y192922D01*
X210167Y192489D01*
Y191911D01*
X209417Y191478D01*
X208422Y190483D01*
X207718Y189264D01*
X207353Y187904D01*
Y186496D01*
X207718Y185136D01*
X208422Y183917D01*
X209417Y182922D01*
X210636Y182218D01*
X211700Y181933D01*
Y181415D01*
X211028Y181236D01*
X210041Y180665D01*
X209235Y179859D01*
X208664Y178872D01*
X208375Y177791D01*
X212700D01*
X217025D01*
X216736Y178872D01*
X216165Y179859D01*
X215359Y180665D01*
X214372Y181236D01*
X213701Y181415D01*
Y181933D01*
X214764Y182218D01*
X215983Y182922D01*
X216978Y183917D01*
X217682Y185136D01*
X218046Y186496D01*
Y187542D01*
X218547Y187749D01*
X265744Y140551D01*
X266571Y139998D01*
X267462Y139821D01*
X267786Y139381D01*
X267718Y139263D01*
X267354Y137903D01*
Y136496D01*
X267718Y135136D01*
X268422Y133917D01*
X269417Y132922D01*
X270167Y132488D01*
Y131911D01*
X269417Y131478D01*
X268422Y130482D01*
X267718Y129263D01*
X267354Y127903D01*
Y126496D01*
X267718Y125136D01*
X268422Y123917D01*
X269417Y122922D01*
X270167Y122488D01*
Y121911D01*
X269417Y121478D01*
X268422Y120483D01*
X267718Y119263D01*
X267354Y117903D01*
Y116496D01*
X267718Y115136D01*
X268422Y113917D01*
X269417Y112922D01*
X270167Y112488D01*
Y111911D01*
X269417Y111478D01*
X268422Y110483D01*
X267718Y109263D01*
X267354Y107904D01*
Y106496D01*
X267718Y105136D01*
X268422Y103917D01*
X269417Y102921D01*
X270636Y102218D01*
X271700Y101933D01*
Y101415D01*
X271028Y101235D01*
X270041Y100665D01*
X269235Y99859D01*
X268664Y98871D01*
X268375Y97790D01*
X272700D01*
X277025D01*
X276736Y98871D01*
X276165Y99859D01*
X275359Y100665D01*
X274372Y101235D01*
X273700Y101415D01*
Y101933D01*
X274764Y102218D01*
X275983Y102921D01*
X276978Y103917D01*
X277682Y105136D01*
X278046Y106496D01*
Y107904D01*
X277682Y109263D01*
X276978Y110483D01*
X275983Y111478D01*
X275233Y111911D01*
Y112488D01*
X275983Y112922D01*
X276978Y113917D01*
X277682Y115136D01*
X278046Y116496D01*
Y117903D01*
X277682Y119263D01*
X276978Y120483D01*
X275983Y121478D01*
X275233Y121911D01*
Y122488D01*
X275983Y122922D01*
X276978Y123917D01*
X277682Y125136D01*
X278046Y126496D01*
Y127903D01*
X277682Y129263D01*
X276978Y130482D01*
X275983Y131478D01*
X275233Y131911D01*
Y132488D01*
X275983Y132922D01*
X276978Y133917D01*
X277682Y135136D01*
X278046Y136496D01*
Y137451D01*
X287798D01*
X288222Y136717D01*
X289217Y135722D01*
X289967Y135289D01*
Y134711D01*
X289217Y134278D01*
X288222Y133283D01*
X287518Y132064D01*
X287154Y130704D01*
Y129296D01*
X287518Y127936D01*
X288222Y126717D01*
X289217Y125722D01*
X290436Y125018D01*
X291499Y124733D01*
Y124215D01*
X290828Y124036D01*
X289841Y123465D01*
X289035Y122659D01*
X288464Y121672D01*
X288175Y120591D01*
X292500D01*
X296825D01*
X296536Y121672D01*
X295965Y122659D01*
X295159Y123465D01*
X294172Y124036D01*
X293500Y124215D01*
Y124733D01*
X294564Y125018D01*
X295783Y125722D01*
X296778Y126717D01*
X297211Y127467D01*
X297789D01*
X298222Y126717D01*
X299217Y125722D01*
X300436Y125018D01*
X301500Y124733D01*
Y124215D01*
X300828Y124036D01*
X299841Y123465D01*
X299035Y122659D01*
X298464Y121672D01*
X298175Y120591D01*
X302500D01*
X306825D01*
X306536Y121672D01*
X305965Y122659D01*
X305159Y123465D01*
X304172Y124036D01*
X303501Y124215D01*
Y124733D01*
X304564Y125018D01*
X305783Y125722D01*
X306778Y126717D01*
X307482Y127936D01*
X307846Y129296D01*
Y130704D01*
X307482Y132064D01*
X306778Y133283D01*
X305783Y134278D01*
X305033Y134711D01*
Y135289D01*
X305783Y135722D01*
X306778Y136717D01*
X307482Y137936D01*
X307846Y139296D01*
Y140704D01*
X307482Y142064D01*
X306778Y143283D01*
X305783Y144278D01*
X305033Y144711D01*
Y145289D01*
X305783Y145722D01*
X306778Y146717D01*
X307482Y147936D01*
X307846Y149296D01*
Y150704D01*
X307482Y152064D01*
X306778Y153283D01*
X305783Y154278D01*
X305033Y154711D01*
Y155289D01*
X305783Y155722D01*
X306778Y156717D01*
X307482Y157936D01*
X307846Y159296D01*
Y160704D01*
X307482Y162064D01*
X306778Y163283D01*
X305783Y164278D01*
X305033Y164711D01*
Y165289D01*
X305783Y165722D01*
X306778Y166717D01*
X307482Y167936D01*
X307846Y169296D01*
Y170704D01*
X307482Y172064D01*
X306778Y173283D01*
X305783Y174278D01*
X305033Y174711D01*
Y175289D01*
X305783Y175722D01*
X306778Y176717D01*
X307482Y177936D01*
X307846Y179296D01*
Y180704D01*
X307482Y182064D01*
X306778Y183283D01*
X305783Y184278D01*
X305033Y184711D01*
Y185289D01*
X305783Y185722D01*
X306778Y186717D01*
X307482Y187936D01*
X307846Y189296D01*
Y190704D01*
X307482Y192064D01*
X306778Y193283D01*
X305783Y194278D01*
X305033Y194711D01*
Y195289D01*
X305783Y195722D01*
X306778Y196717D01*
X307482Y197936D01*
X307846Y199296D01*
Y200704D01*
X307482Y202064D01*
X306778Y203283D01*
X305908Y204153D01*
X306084Y204654D01*
X307846D01*
Y215347D01*
X297153D01*
Y213584D01*
X296654Y213407D01*
X295783Y214278D01*
X294564Y214982D01*
X293204Y215347D01*
X291796D01*
X290436Y214982D01*
X290081Y214777D01*
X289648Y215027D01*
Y217425D01*
X289648Y217425D01*
X289528Y218338D01*
X289175Y219190D01*
X288614Y219921D01*
X288614Y219921D01*
X282939Y225596D01*
X282208Y226157D01*
X281356Y226510D01*
X280443Y226630D01*
X262562D01*
X252630Y236562D01*
Y239199D01*
X254604D01*
Y255601D01*
X252580D01*
Y261366D01*
X254543D01*
Y273634D01*
D02*
G37*
G36*
X302566Y257700D02*
X300834D01*
X299124Y257429D01*
X297478Y256894D01*
X295935Y256108D01*
X294534Y255090D01*
X293310Y253866D01*
X292292Y252465D01*
X291506Y250922D01*
X291281Y250230D01*
X271604D01*
Y255601D01*
X260596D01*
Y239199D01*
X271604D01*
Y243170D01*
X291281D01*
X291506Y242477D01*
X292292Y240935D01*
X293310Y239534D01*
X294534Y238310D01*
X295935Y237292D01*
X297478Y236506D01*
X299124Y235971D01*
X300834Y235700D01*
X302566D01*
X304276Y235971D01*
X305923Y236506D01*
X307465Y237292D01*
X308866Y238310D01*
X310090Y239534D01*
X311108Y240935D01*
X311894Y242477D01*
X312429Y244124D01*
X312700Y245834D01*
Y247566D01*
X312429Y249276D01*
X311894Y250922D01*
X311108Y252465D01*
X310090Y253866D01*
X308866Y255090D01*
X307465Y256108D01*
X305923Y256894D01*
X304276Y257429D01*
X302566Y257700D01*
D02*
G37*
G36*
X327683Y256684D02*
X327291D01*
Y247290D01*
X336684D01*
Y247683D01*
X336301Y249612D01*
X335548Y251429D01*
X334455Y253065D01*
X333065Y254455D01*
X331429Y255548D01*
X329612Y256301D01*
X327683Y256684D01*
D02*
G37*
G36*
X326110D02*
X325717D01*
X323788Y256301D01*
X321971Y255548D01*
X320335Y254455D01*
X318945Y253065D01*
X317852Y251429D01*
X317099Y249612D01*
X316716Y247683D01*
Y247290D01*
X326110D01*
Y256684D01*
D02*
G37*
G36*
X336684Y246110D02*
X327291D01*
Y236716D01*
X327683D01*
X329612Y237099D01*
X331429Y237852D01*
X333065Y238945D01*
X334455Y240335D01*
X335548Y241971D01*
X336301Y243788D01*
X336684Y245717D01*
Y246110D01*
D02*
G37*
G36*
X326110D02*
X316716D01*
Y245717D01*
X317099Y243788D01*
X317852Y241971D01*
X318945Y240335D01*
X320335Y238945D01*
X321971Y237852D01*
X323788Y237099D01*
X325717Y236716D01*
X326110D01*
Y246110D01*
D02*
G37*
G36*
X115909Y233540D02*
X115617Y233481D01*
X114868Y232981D01*
X114368Y232232D01*
X114192Y231349D01*
Y229085D01*
X115909D01*
Y233540D01*
D02*
G37*
G36*
Y227904D02*
X114192D01*
Y225640D01*
X114368Y224757D01*
X114868Y224008D01*
X115617Y223508D01*
X115909Y223449D01*
Y227904D01*
D02*
G37*
G36*
X217025Y176609D02*
X213291D01*
Y172875D01*
X214372Y173164D01*
X215359Y173735D01*
X216165Y174541D01*
X216736Y175528D01*
X217025Y176609D01*
D02*
G37*
G36*
X212109D02*
X208375D01*
X208664Y175528D01*
X209235Y174541D01*
X210041Y173735D01*
X211028Y173164D01*
X212109Y172875D01*
Y176609D01*
D02*
G37*
G36*
X213291Y171525D02*
Y167791D01*
X217025D01*
X216736Y168872D01*
X216165Y169859D01*
X215359Y170665D01*
X214372Y171236D01*
X213291Y171525D01*
D02*
G37*
G36*
X212109D02*
X211028Y171236D01*
X210041Y170665D01*
X209235Y169859D01*
X208664Y168872D01*
X208375Y167791D01*
X212109D01*
Y171525D01*
D02*
G37*
G36*
X296825Y119409D02*
X293091D01*
Y115675D01*
X294172Y115964D01*
X295159Y116535D01*
X295965Y117341D01*
X296536Y118328D01*
X296825Y119409D01*
D02*
G37*
G36*
X291910D02*
X288175D01*
X288464Y118328D01*
X289035Y117341D01*
X289841Y116535D01*
X290828Y115964D01*
X291910Y115675D01*
Y119409D01*
D02*
G37*
G36*
X306825D02*
X302500D01*
X298175D01*
X298464Y118328D01*
X299035Y117341D01*
X299841Y116535D01*
X300828Y115964D01*
X301500Y115785D01*
Y115267D01*
X300436Y114982D01*
X299217Y114278D01*
X298222Y113283D01*
X297518Y112064D01*
X297233Y111001D01*
X296715D01*
X296536Y111672D01*
X295965Y112659D01*
X295159Y113465D01*
X294172Y114036D01*
X293091Y114325D01*
Y110000D01*
X292500D01*
Y109409D01*
X288175D01*
X288464Y108328D01*
X288549Y108182D01*
X288299Y107749D01*
X287900D01*
X286925Y107555D01*
X286098Y107002D01*
X280998Y101902D01*
X280445Y101075D01*
X280251Y100100D01*
Y90156D01*
X278444Y88349D01*
X258636D01*
X258601Y88410D01*
X257810Y89201D01*
X256840Y89760D01*
X255760Y90050D01*
X254641D01*
X253560Y89760D01*
X252590Y89201D01*
X251799Y88410D01*
X251240Y87440D01*
X250950Y86360D01*
Y85241D01*
X251240Y84160D01*
X251799Y83190D01*
X252590Y82399D01*
X253560Y81840D01*
X254641Y81550D01*
X255760D01*
X256840Y81840D01*
X257810Y82399D01*
X258601Y83190D01*
X258636Y83251D01*
X279500D01*
X280475Y83445D01*
X281302Y83998D01*
X284602Y87298D01*
X285155Y88125D01*
X285349Y89100D01*
Y99044D01*
X286653Y100349D01*
X287154Y100142D01*
Y99296D01*
X287518Y97936D01*
X288222Y96717D01*
X289217Y95722D01*
X289967Y95289D01*
Y94711D01*
X289217Y94278D01*
X288222Y93283D01*
X287518Y92064D01*
X287154Y90704D01*
Y89296D01*
X287518Y87936D01*
X288222Y86717D01*
X289217Y85722D01*
X289967Y85289D01*
Y84711D01*
X289217Y84278D01*
X288222Y83283D01*
X287518Y82064D01*
X287154Y80704D01*
Y79296D01*
X287518Y77936D01*
X288222Y76717D01*
X289217Y75722D01*
X289967Y75289D01*
Y74711D01*
X289217Y74278D01*
X288222Y73283D01*
X287518Y72064D01*
X287154Y70704D01*
Y69296D01*
X287518Y67936D01*
X288222Y66717D01*
X289217Y65722D01*
X289967Y65289D01*
Y64711D01*
X289217Y64278D01*
X288222Y63283D01*
X287518Y62064D01*
X287154Y60704D01*
Y59296D01*
X287518Y57936D01*
X288222Y56717D01*
X289217Y55722D01*
X289967Y55289D01*
Y54711D01*
X289217Y54278D01*
X288222Y53283D01*
X287518Y52064D01*
X287154Y50704D01*
Y49296D01*
X287518Y47936D01*
X288222Y46717D01*
X289217Y45722D01*
X289967Y45289D01*
Y44711D01*
X289217Y44278D01*
X288222Y43283D01*
X287518Y42064D01*
X287154Y40704D01*
Y39296D01*
X287518Y37936D01*
X288222Y36717D01*
X289217Y35722D01*
X289967Y35289D01*
Y34711D01*
X289217Y34278D01*
X288222Y33283D01*
X287605Y32214D01*
X287298Y32149D01*
X287192Y32151D01*
X287035Y32193D01*
X286002Y33615D01*
X284684Y34933D01*
X283176Y36029D01*
X281515Y36875D01*
X279742Y37451D01*
X277901Y37742D01*
X276037D01*
X274196Y37451D01*
X272423Y36875D01*
X270762Y36029D01*
X269254Y34933D01*
X267936Y33615D01*
X266841Y32107D01*
X265994Y30446D01*
X265418Y28673D01*
X265127Y26832D01*
Y24968D01*
X265418Y23127D01*
X265994Y21354D01*
X266841Y19693D01*
X267936Y18185D01*
X269254Y16867D01*
X270762Y15771D01*
X272423Y14925D01*
X274196Y14349D01*
X276037Y14058D01*
X277901D01*
X279742Y14349D01*
X281515Y14925D01*
X283176Y15771D01*
X284684Y16867D01*
X286002Y18185D01*
X286683Y19122D01*
X287227Y19021D01*
X287518Y17936D01*
X288222Y16717D01*
X289217Y15722D01*
X290436Y15018D01*
X291796Y14654D01*
X293204D01*
X294564Y15018D01*
X295783Y15722D01*
X296778Y16717D01*
X297211Y17467D01*
X297789D01*
X298222Y16717D01*
X299217Y15722D01*
X300436Y15018D01*
X301796Y14654D01*
X303204D01*
X304564Y15018D01*
X305783Y15722D01*
X306778Y16717D01*
X307482Y17936D01*
X307846Y19296D01*
Y20704D01*
X307482Y22064D01*
X306778Y23283D01*
X305783Y24278D01*
X305033Y24711D01*
Y25289D01*
X305783Y25722D01*
X306778Y26717D01*
X307482Y27936D01*
X307846Y29296D01*
Y30704D01*
X307482Y32064D01*
X306778Y33283D01*
X305783Y34278D01*
X305033Y34711D01*
Y35289D01*
X305783Y35722D01*
X306778Y36717D01*
X307482Y37936D01*
X307846Y39296D01*
Y40704D01*
X307482Y42064D01*
X306778Y43283D01*
X305783Y44278D01*
X305033Y44711D01*
Y45289D01*
X305783Y45722D01*
X306778Y46717D01*
X307482Y47936D01*
X307846Y49296D01*
Y50704D01*
X307482Y52064D01*
X306778Y53283D01*
X305783Y54278D01*
X305033Y54711D01*
Y55289D01*
X305783Y55722D01*
X306778Y56717D01*
X307482Y57936D01*
X307846Y59296D01*
Y60704D01*
X307482Y62064D01*
X306778Y63283D01*
X305783Y64278D01*
X305033Y64711D01*
Y65289D01*
X305783Y65722D01*
X306778Y66717D01*
X307482Y67936D01*
X307846Y69296D01*
Y70704D01*
X307482Y72064D01*
X306778Y73283D01*
X305783Y74278D01*
X305033Y74711D01*
Y75289D01*
X305783Y75722D01*
X306778Y76717D01*
X307482Y77936D01*
X307846Y79296D01*
Y80704D01*
X307482Y82064D01*
X306778Y83283D01*
X305783Y84278D01*
X305033Y84711D01*
Y85289D01*
X305783Y85722D01*
X306778Y86717D01*
X307482Y87936D01*
X307846Y89296D01*
Y90704D01*
X307482Y92064D01*
X306778Y93283D01*
X305783Y94278D01*
X305033Y94711D01*
Y95289D01*
X305783Y95722D01*
X306778Y96717D01*
X307482Y97936D01*
X307846Y99296D01*
Y100704D01*
X307482Y102064D01*
X306778Y103283D01*
X305783Y104278D01*
X305033Y104711D01*
Y105289D01*
X305783Y105722D01*
X306778Y106717D01*
X307482Y107936D01*
X307846Y109296D01*
Y110704D01*
X307482Y112064D01*
X306778Y113283D01*
X305783Y114278D01*
X304564Y114982D01*
X303501Y115267D01*
Y115785D01*
X304172Y115964D01*
X305159Y116535D01*
X305965Y117341D01*
X306536Y118328D01*
X306825Y119409D01*
D02*
G37*
G36*
X291910Y114325D02*
X290828Y114036D01*
X289841Y113465D01*
X289035Y112659D01*
X288464Y111672D01*
X288175Y110591D01*
X291910D01*
Y114325D01*
D02*
G37*
G36*
X277025Y96609D02*
X273290D01*
Y92874D01*
X274372Y93164D01*
X275359Y93734D01*
X276165Y94541D01*
X276736Y95528D01*
X277025Y96609D01*
D02*
G37*
G36*
X272110D02*
X268375D01*
X268664Y95528D01*
X269235Y94541D01*
X270041Y93734D01*
X271028Y93164D01*
X272110Y92874D01*
Y96609D01*
D02*
G37*
G36*
X217025Y166609D02*
X212700D01*
X208375D01*
X208664Y165528D01*
X209235Y164541D01*
X210041Y163735D01*
X211028Y163164D01*
X211700Y162985D01*
Y162467D01*
X210636Y162182D01*
X209417Y161478D01*
X208422Y160483D01*
X207718Y159264D01*
X207353Y157904D01*
Y156496D01*
X207718Y155136D01*
X208422Y153917D01*
X209417Y152922D01*
X210167Y152489D01*
Y151911D01*
X209417Y151478D01*
X208422Y150483D01*
X207718Y149264D01*
X207353Y147904D01*
Y146496D01*
X207718Y145136D01*
X208422Y143917D01*
X209417Y142922D01*
X210167Y142489D01*
Y141911D01*
X209417Y141478D01*
X208422Y140483D01*
X207718Y139264D01*
X207353Y137904D01*
Y136496D01*
X207718Y135136D01*
X208422Y133917D01*
X209417Y132922D01*
X210167Y132489D01*
Y131911D01*
X209417Y131478D01*
X208422Y130483D01*
X207718Y129264D01*
X207353Y127904D01*
Y126496D01*
X207718Y125136D01*
X208422Y123917D01*
X209417Y122922D01*
X210167Y122489D01*
Y121911D01*
X209417Y121478D01*
X208422Y120483D01*
X207718Y119264D01*
X207353Y117904D01*
Y116496D01*
X207718Y115136D01*
X208422Y113917D01*
X209417Y112922D01*
X210167Y112489D01*
Y111911D01*
X209417Y111478D01*
X208422Y110483D01*
X207718Y109264D01*
X207353Y107904D01*
Y106496D01*
X207718Y105136D01*
X208422Y103917D01*
X209417Y102922D01*
X210167Y102489D01*
Y101911D01*
X209417Y101478D01*
X208422Y100483D01*
X207718Y99264D01*
X207353Y97904D01*
Y96496D01*
X207718Y95136D01*
X208422Y93917D01*
X209417Y92922D01*
X210636Y92218D01*
X211996Y91853D01*
X213404D01*
X214764Y92218D01*
X215983Y92922D01*
X216978Y93917D01*
X217682Y95136D01*
X218046Y96496D01*
Y97904D01*
X217682Y99264D01*
X216978Y100483D01*
X215983Y101478D01*
X215233Y101911D01*
Y102489D01*
X215983Y102922D01*
X216978Y103917D01*
X217682Y105136D01*
X218046Y106496D01*
Y107904D01*
X217682Y109264D01*
X216978Y110483D01*
X215983Y111478D01*
X215233Y111911D01*
Y112489D01*
X215983Y112922D01*
X216978Y113917D01*
X217682Y115136D01*
X218046Y116496D01*
Y117904D01*
X217682Y119264D01*
X216978Y120483D01*
X215983Y121478D01*
X215233Y121911D01*
Y122489D01*
X215983Y122922D01*
X216978Y123917D01*
X217682Y125136D01*
X218046Y126496D01*
Y127904D01*
X217682Y129264D01*
X216978Y130483D01*
X215983Y131478D01*
X215233Y131911D01*
Y132489D01*
X215983Y132922D01*
X216978Y133917D01*
X217682Y135136D01*
X218046Y136496D01*
Y137904D01*
X217682Y139264D01*
X216978Y140483D01*
X215983Y141478D01*
X215233Y141911D01*
Y142489D01*
X215983Y142922D01*
X216978Y143917D01*
X217682Y145136D01*
X218046Y146496D01*
Y147904D01*
X217682Y149264D01*
X216978Y150483D01*
X215983Y151478D01*
X215233Y151911D01*
Y152489D01*
X215983Y152922D01*
X216978Y153917D01*
X217682Y155136D01*
X218046Y156496D01*
Y157904D01*
X217682Y159264D01*
X216978Y160483D01*
X215983Y161478D01*
X214764Y162182D01*
X213701Y162467D01*
Y162985D01*
X214372Y163164D01*
X215359Y163735D01*
X216165Y164541D01*
X216736Y165528D01*
X217025Y166609D01*
D02*
G37*
G36*
X24500Y160978D02*
X14502D01*
Y88000D01*
X24500D01*
Y160978D01*
D02*
G37*
G36*
X107447Y73744D02*
X104691D01*
Y72071D01*
X107447D01*
Y73744D01*
D02*
G37*
G36*
X103509D02*
X100753D01*
Y72071D01*
X103509D01*
Y73744D01*
D02*
G37*
G36*
X107447Y70890D02*
X104691D01*
Y69217D01*
X107447D01*
Y70890D01*
D02*
G37*
G36*
X103509D02*
X100753D01*
Y69217D01*
X103509D01*
Y70890D01*
D02*
G37*
G36*
X123843Y71147D02*
X120891D01*
Y68784D01*
X123843D01*
Y71147D01*
D02*
G37*
G36*
X119709D02*
X116757D01*
Y68784D01*
X119709D01*
Y71147D01*
D02*
G37*
G36*
X82232Y37742D02*
X80368D01*
X78527Y37451D01*
X76754Y36875D01*
X75093Y36029D01*
X73585Y34933D01*
X72267Y33615D01*
X71171Y32107D01*
X70325Y30446D01*
X69749Y28673D01*
X69458Y26832D01*
Y24968D01*
X69749Y23127D01*
X70325Y21354D01*
X71171Y19693D01*
X72267Y18185D01*
X73585Y16867D01*
X75093Y15771D01*
X76754Y14925D01*
X78527Y14349D01*
X80368Y14058D01*
X82232D01*
X84073Y14349D01*
X85846Y14925D01*
X87507Y15771D01*
X89015Y16867D01*
X90333Y18185D01*
X91429Y19693D01*
X92275Y21354D01*
X92851Y23127D01*
X93142Y24968D01*
Y26832D01*
X92851Y28673D01*
X92275Y30446D01*
X91429Y32107D01*
X90333Y33615D01*
X89015Y34933D01*
X87507Y36029D01*
X85846Y36875D01*
X84073Y37451D01*
X82232Y37742D01*
D02*
G37*
%LPD*%
G36*
X179104Y245504D02*
X179835Y244943D01*
X180686Y244590D01*
X181600Y244470D01*
X192070D01*
Y193793D01*
X180859D01*
Y194231D01*
X171741D01*
Y186294D01*
X180859D01*
Y186733D01*
X192070D01*
Y111662D01*
X182838Y102430D01*
X182059D01*
Y102868D01*
X172941D01*
Y102536D01*
X164719D01*
X164695Y102716D01*
X164365Y103514D01*
X163839Y104199D01*
X163154Y104725D01*
X162356Y105055D01*
X161500Y105168D01*
X160644Y105055D01*
X160033Y104802D01*
X159570Y104989D01*
X159481Y105075D01*
X159468Y105157D01*
X160001Y105690D01*
X160560Y106660D01*
X160850Y107740D01*
Y108860D01*
X160560Y109940D01*
X160001Y110910D01*
X159210Y111701D01*
X158240Y112260D01*
X157159Y112550D01*
X156041D01*
X155572Y112424D01*
X155310Y113399D01*
X154751Y114369D01*
X153960Y115160D01*
X152990Y115719D01*
X151909Y116009D01*
X150791D01*
X149710Y115719D01*
X148740Y115160D01*
X147949Y114369D01*
X147390Y113399D01*
X147100Y112319D01*
Y111199D01*
X147390Y110119D01*
X147949Y109149D01*
X148740Y108358D01*
X148876Y108280D01*
Y104801D01*
X148376Y104554D01*
X148154Y104725D01*
X147356Y105055D01*
X146500Y105168D01*
X145644Y105055D01*
X144846Y104725D01*
X144355Y104348D01*
X144000Y104245D01*
X143645Y104348D01*
X143154Y104725D01*
X142356Y105055D01*
X141500Y105168D01*
X140644Y105055D01*
X140212Y104876D01*
X139864Y105273D01*
X140260Y105960D01*
X140550Y107041D01*
Y108159D01*
X140260Y109240D01*
X139701Y110210D01*
X138910Y111001D01*
X137940Y111560D01*
X136860Y111850D01*
X135740D01*
X134660Y111560D01*
X133690Y111001D01*
X132899Y110210D01*
X132340Y109240D01*
X132050Y108159D01*
Y107041D01*
X132340Y105960D01*
X132610Y105491D01*
X132463Y105239D01*
X132279Y105065D01*
X131500Y105168D01*
X130644Y105055D01*
X129846Y104725D01*
X129161Y104199D01*
X128680Y103572D01*
X128214Y103484D01*
X128095Y103516D01*
X127383Y103992D01*
X127091Y104051D01*
Y99006D01*
X125909D01*
Y104051D01*
X125617Y103992D01*
X124905Y103516D01*
X124786Y103484D01*
X124320Y103572D01*
X123839Y104199D01*
X123154Y104725D01*
X122356Y105055D01*
X121500Y105168D01*
X120644Y105055D01*
X119846Y104725D01*
X119161Y104199D01*
X118680Y103572D01*
X118214Y103484D01*
X118095Y103516D01*
X117383Y103992D01*
X117091Y104051D01*
Y99006D01*
X116500D01*
Y98415D01*
X114192D01*
Y96151D01*
X114368Y95268D01*
X114848Y94549D01*
X114776Y94217D01*
X114725Y94049D01*
X107209D01*
X107001Y94410D01*
X106210Y95201D01*
X105240Y95760D01*
X104159Y96050D01*
X103041D01*
X101960Y95760D01*
X100990Y95201D01*
X100199Y94410D01*
X99640Y93440D01*
X99350Y92360D01*
Y92251D01*
X98917Y92001D01*
X98640Y92160D01*
X97559Y92450D01*
X96441D01*
X95849Y92291D01*
X95349Y92675D01*
Y135206D01*
X95510Y135299D01*
X96301Y136090D01*
X96860Y137060D01*
X97150Y138140D01*
Y139260D01*
X96860Y140340D01*
X96301Y141310D01*
X95510Y142101D01*
X94540Y142660D01*
X93459Y142950D01*
X92340D01*
X92096Y142884D01*
X91699Y143189D01*
Y150866D01*
X97589Y156756D01*
X98051Y156564D01*
Y132636D01*
X97990Y132601D01*
X97199Y131810D01*
X96640Y130840D01*
X96350Y129760D01*
Y128640D01*
X96640Y127560D01*
X97199Y126590D01*
X97990Y125799D01*
X98960Y125240D01*
X100040Y124950D01*
X101160D01*
X102240Y125240D01*
X103210Y125799D01*
X104001Y126590D01*
X104560Y127560D01*
X104850Y128640D01*
Y129760D01*
X104560Y130840D01*
X104001Y131810D01*
X103210Y132601D01*
X103149Y132636D01*
Y158230D01*
X111956Y167037D01*
X120637D01*
X120905Y166708D01*
X120711Y166259D01*
X120569D01*
Y157141D01*
X127723D01*
X127930Y156641D01*
X127449Y156160D01*
X126890Y155190D01*
X126600Y154110D01*
Y152990D01*
X126890Y151910D01*
X127449Y150940D01*
X128240Y150149D01*
X128653Y149911D01*
Y143096D01*
X128204Y142875D01*
X128154Y142913D01*
X127356Y143244D01*
X126500Y143357D01*
X125644Y143244D01*
X124846Y142913D01*
X124355Y142537D01*
X124000Y142434D01*
X123645Y142537D01*
X123154Y142913D01*
X122356Y143244D01*
X121500Y143357D01*
X120644Y143244D01*
X119846Y142913D01*
X119161Y142388D01*
X118680Y141761D01*
X118214Y141673D01*
X118095Y141706D01*
X117383Y142181D01*
X117091Y142239D01*
Y137195D01*
Y132150D01*
X117383Y132208D01*
X118095Y132684D01*
X118214Y132716D01*
X118680Y132628D01*
X119161Y132001D01*
X119846Y131475D01*
X120644Y131145D01*
X121500Y131032D01*
X122356Y131145D01*
X122990Y131408D01*
X123273Y130984D01*
X123199Y130910D01*
X122640Y129940D01*
X122350Y128859D01*
Y127741D01*
X122640Y126660D01*
X123199Y125690D01*
X123990Y124899D01*
X124960Y124340D01*
X126040Y124050D01*
X127160D01*
X128240Y124340D01*
X129210Y124899D01*
X130001Y125690D01*
X130560Y126660D01*
X130850Y127741D01*
Y128859D01*
X130560Y129940D01*
X130031Y130858D01*
X130094Y131004D01*
X130351Y131266D01*
X130644Y131145D01*
X131500Y131032D01*
X132356Y131145D01*
X133154Y131475D01*
X133645Y131852D01*
X134000Y131955D01*
X134355Y131852D01*
X134846Y131475D01*
X135644Y131145D01*
X136500Y131032D01*
X137356Y131145D01*
X138154Y131475D01*
X138645Y131852D01*
X139000Y131955D01*
X139355Y131852D01*
X139846Y131475D01*
X140644Y131145D01*
X141500Y131032D01*
X142356Y131145D01*
X143154Y131475D01*
X143645Y131852D01*
X144000Y131955D01*
X144355Y131852D01*
X144846Y131475D01*
X145644Y131145D01*
X146500Y131032D01*
X147356Y131145D01*
X148154Y131475D01*
X148645Y131852D01*
X149000Y131955D01*
X149355Y131852D01*
X149846Y131475D01*
X150644Y131145D01*
X151500Y131032D01*
X152356Y131145D01*
X153154Y131475D01*
X153645Y131852D01*
X154000Y131955D01*
X154355Y131852D01*
X154846Y131475D01*
X155644Y131145D01*
X156158Y131077D01*
X161638Y125598D01*
X162465Y125045D01*
X163440Y124851D01*
X181749D01*
X181899Y124590D01*
X182690Y123799D01*
X183660Y123240D01*
X184740Y122950D01*
X185860D01*
X186940Y123240D01*
X187910Y123799D01*
X188701Y124590D01*
X189260Y125560D01*
X189550Y126640D01*
Y127760D01*
X189260Y128840D01*
X188701Y129810D01*
X187910Y130601D01*
X186940Y131160D01*
X185860Y131450D01*
X184740D01*
X183660Y131160D01*
X182690Y130601D01*
X182039Y129949D01*
X164496D01*
X163386Y131059D01*
X163450Y131702D01*
X163839Y132001D01*
X164365Y132686D01*
X164695Y133484D01*
X164808Y134340D01*
Y140049D01*
X164695Y140905D01*
X164365Y141703D01*
X164049Y142114D01*
Y158709D01*
X170351D01*
Y140136D01*
X170290Y140101D01*
X169499Y139310D01*
X168940Y138340D01*
X168650Y137259D01*
Y136141D01*
X168940Y135060D01*
X169499Y134090D01*
X170290Y133299D01*
X171260Y132740D01*
X172341Y132450D01*
X173459D01*
X174540Y132740D01*
X175510Y133299D01*
X176301Y134090D01*
X176860Y135060D01*
X177150Y136141D01*
Y137259D01*
X176860Y138340D01*
X176301Y139310D01*
X175510Y140101D01*
X175449Y140136D01*
Y161258D01*
X175255Y162233D01*
X174702Y163060D01*
X173875Y163613D01*
X172900Y163807D01*
X164049D01*
Y173200D01*
X163855Y174176D01*
X163302Y175002D01*
X159049Y179256D01*
Y184568D01*
X159549Y184815D01*
X159846Y184587D01*
X160644Y184256D01*
X161500Y184143D01*
X162356Y184256D01*
X163154Y184587D01*
X163839Y185112D01*
X164365Y185797D01*
X164695Y186595D01*
X164808Y187451D01*
Y189145D01*
X164910Y189392D01*
X165030Y190305D01*
Y204738D01*
X171970Y211678D01*
X172531Y212409D01*
X172884Y213260D01*
X173004Y214174D01*
Y247441D01*
X173442D01*
Y248470D01*
X176138D01*
X179104Y245504D01*
D02*
G37*
G36*
X68251Y178874D02*
Y161640D01*
X68143Y161530D01*
X67592Y161676D01*
X67583Y161688D01*
X67482Y162064D01*
X66778Y163283D01*
X65783Y164278D01*
X64564Y164982D01*
X63500Y165267D01*
Y165785D01*
X64172Y165964D01*
X65159Y166535D01*
X65965Y167341D01*
X66536Y168328D01*
X66825Y169409D01*
X62500D01*
Y170591D01*
X66825D01*
X66536Y171672D01*
X65965Y172659D01*
X65159Y173465D01*
X64172Y174036D01*
X63500Y174215D01*
Y174733D01*
X64564Y175018D01*
X65783Y175722D01*
X66778Y176717D01*
X67482Y177936D01*
X67751Y178940D01*
X68251Y178874D01*
D02*
G37*
G36*
X259335Y220043D02*
X260186Y219690D01*
X261100Y219570D01*
X278980D01*
X282588Y215962D01*
Y196382D01*
X282708Y195468D01*
X283061Y194617D01*
X283622Y193886D01*
X287154Y190354D01*
Y189296D01*
X287518Y187936D01*
X288222Y186717D01*
X289217Y185722D01*
X290436Y185018D01*
X291499Y184733D01*
Y184215D01*
X290828Y184036D01*
X289841Y183465D01*
X289035Y182659D01*
X288464Y181672D01*
X288175Y180591D01*
X292500D01*
Y179409D01*
X288175D01*
X288464Y178328D01*
X289035Y177341D01*
X289841Y176535D01*
X290828Y175964D01*
X291499Y175785D01*
Y175267D01*
X290436Y174982D01*
X289217Y174278D01*
X288222Y173283D01*
X287518Y172064D01*
X287154Y170704D01*
Y169296D01*
X287518Y167936D01*
X288222Y166717D01*
X289217Y165722D01*
X289967Y165289D01*
Y164711D01*
X289217Y164278D01*
X288222Y163283D01*
X287518Y162064D01*
X287154Y160704D01*
Y159296D01*
X287518Y157936D01*
X288222Y156717D01*
X289217Y155722D01*
X289967Y155289D01*
Y154711D01*
X289217Y154278D01*
X288222Y153283D01*
X287518Y152064D01*
X287154Y150704D01*
Y149296D01*
X287518Y147936D01*
X288222Y146717D01*
X289217Y145722D01*
X289967Y145289D01*
Y144711D01*
X289217Y144278D01*
X288222Y143283D01*
X287798Y142549D01*
X277809D01*
X276710Y143649D01*
X276978Y143917D01*
X277682Y145136D01*
X278046Y146496D01*
Y147904D01*
X277682Y149263D01*
X276978Y150482D01*
X275983Y151478D01*
X275233Y151911D01*
Y152488D01*
X275983Y152921D01*
X276978Y153917D01*
X277682Y155136D01*
X278046Y156496D01*
Y157904D01*
X277682Y159263D01*
X276978Y160483D01*
X275983Y161478D01*
X275233Y161911D01*
Y162488D01*
X275983Y162922D01*
X276978Y163917D01*
X277682Y165136D01*
X278046Y166496D01*
Y167903D01*
X277682Y169263D01*
X276978Y170483D01*
X275983Y171478D01*
X275233Y171911D01*
Y172488D01*
X275983Y172922D01*
X276978Y173917D01*
X277682Y175136D01*
X278046Y176496D01*
Y177903D01*
X277682Y179263D01*
X276978Y180482D01*
X275983Y181478D01*
X275233Y181911D01*
Y182488D01*
X275983Y182922D01*
X276978Y183917D01*
X277682Y185136D01*
X278046Y186496D01*
Y187903D01*
X277682Y189263D01*
X276978Y190482D01*
X275983Y191478D01*
X275233Y191911D01*
Y192488D01*
X275983Y192921D01*
X276978Y193917D01*
X277682Y195136D01*
X278046Y196496D01*
Y197904D01*
X277682Y199263D01*
X276978Y200483D01*
X275983Y201478D01*
X275233Y201911D01*
Y202488D01*
X275983Y202922D01*
X276978Y203917D01*
X277682Y205136D01*
X278046Y206496D01*
Y207904D01*
X277682Y209263D01*
X276978Y210483D01*
X275983Y211478D01*
X274764Y212182D01*
X273404Y212546D01*
X271996D01*
X270636Y212182D01*
X269417Y211478D01*
X268422Y210483D01*
X267718Y209263D01*
X267354Y207904D01*
Y206496D01*
X267718Y205136D01*
X268422Y203917D01*
X269417Y202922D01*
X270167Y202488D01*
Y201911D01*
X269417Y201478D01*
X268422Y200483D01*
X267718Y199263D01*
X267354Y197904D01*
Y196858D01*
X266853Y196651D01*
X258331Y205173D01*
Y220183D01*
X258831Y220429D01*
X259335Y220043D01*
D02*
G37*
%LPC*%
G36*
X179843Y201090D02*
X176891D01*
Y198728D01*
X179843D01*
Y201090D01*
D02*
G37*
G36*
X175709D02*
X172757D01*
Y198728D01*
X175709D01*
Y201090D01*
D02*
G37*
G36*
X179843Y197547D02*
X176891D01*
Y195184D01*
X179843D01*
Y197547D01*
D02*
G37*
G36*
X175709D02*
X172757D01*
Y195184D01*
X175709D01*
Y197547D01*
D02*
G37*
G36*
X119616Y165243D02*
X117253D01*
Y162291D01*
X119616D01*
Y165243D01*
D02*
G37*
G36*
X116072D02*
X113710D01*
Y162291D01*
X116072D01*
Y165243D01*
D02*
G37*
G36*
X119616Y161109D02*
X117253D01*
Y158157D01*
X119616D01*
Y161109D01*
D02*
G37*
G36*
X116072D02*
X113710D01*
Y158157D01*
X116072D01*
Y161109D01*
D02*
G37*
G36*
X115909Y142239D02*
X115617Y142181D01*
X114868Y141681D01*
X114368Y140932D01*
X114192Y140049D01*
Y137785D01*
X115909D01*
Y142239D01*
D02*
G37*
G36*
Y136604D02*
X114192D01*
Y134340D01*
X114368Y133457D01*
X114868Y132708D01*
X115617Y132208D01*
X115909Y132150D01*
Y136604D01*
D02*
G37*
G36*
X181043Y109727D02*
X178091D01*
Y107365D01*
X181043D01*
Y109727D01*
D02*
G37*
G36*
X176909D02*
X173957D01*
Y107365D01*
X176909D01*
Y109727D01*
D02*
G37*
G36*
X181043Y106184D02*
X178091D01*
Y103821D01*
X181043D01*
Y106184D01*
D02*
G37*
G36*
X176909D02*
X173957D01*
Y103821D01*
X176909D01*
Y106184D01*
D02*
G37*
G36*
X115909Y104051D02*
X115617Y103992D01*
X114868Y103492D01*
X114368Y102743D01*
X114192Y101860D01*
Y99596D01*
X115909D01*
Y104051D01*
D02*
G37*
%LPD*%
D14*
X290446Y105200D02*
X290493Y105154D01*
X297654D02*
X302500Y110000D01*
X290493Y105154D02*
X297654D01*
X287900Y105200D02*
X290446D01*
X282800Y100100D02*
X287900Y105200D01*
X282800Y89100D02*
Y100100D01*
X279500Y85800D02*
X282800Y89100D01*
X255200Y85800D02*
X279500D01*
X109300Y41400D02*
X112200Y44300D01*
Y48500D01*
X83100Y41400D02*
X109300D01*
X73300Y51200D02*
X83100Y41400D01*
X93800Y58400D02*
Y67591D01*
X93651Y67740D02*
X93800Y67591D01*
X97837Y48300D02*
Y54363D01*
X93800Y58400D02*
X97837Y54363D01*
X81100Y53000D02*
Y68495D01*
X81299Y68694D01*
X85800Y48300D02*
X89963D01*
X81100Y53000D02*
X85800Y48300D01*
X120274Y48600D02*
Y63837D01*
X120300Y63863D01*
X141500Y190305D02*
Y196800D01*
X127605Y210695D02*
X141500Y196800D01*
X95765Y210695D02*
X127605D01*
X121605Y208695D02*
X131500Y198800D01*
X81300Y208695D02*
X121605D01*
X131500Y190305D02*
Y198800D01*
X118805Y198695D02*
X121500Y196000D01*
Y190305D02*
Y196000D01*
X81300Y198695D02*
X118805D01*
X126500Y190305D02*
Y198300D01*
X79292Y203849D02*
X120951D01*
X126500Y198300D01*
X161500Y161258D02*
Y173200D01*
X156500Y178200D02*
X161500Y173200D01*
X156500Y178200D02*
Y190305D01*
X161500Y161258D02*
X172900D01*
Y136700D02*
Y161258D01*
X139757Y161500D02*
X151500Y149757D01*
Y137195D02*
Y149757D01*
X161500Y137195D02*
Y161258D01*
X95447Y84450D02*
X134550D01*
X141500Y91400D01*
Y99006D01*
X103900Y91500D02*
X119900D01*
X121500Y93100D02*
Y99006D01*
X119900Y91500D02*
X121500Y93100D01*
X131500Y91700D02*
Y99006D01*
X127850Y88050D02*
X131500Y91700D01*
X97150Y88050D02*
X127850D01*
X122200Y115600D02*
X126509Y111291D01*
X116500Y115600D02*
X122200D01*
X126509Y99015D02*
Y111291D01*
X156400Y228395D02*
X156500Y228495D01*
X156300Y218700D02*
X156400Y218800D01*
Y228395D01*
X151425Y99080D02*
Y111684D01*
X151350Y111759D02*
X151425Y111684D01*
Y99080D02*
X151500Y99006D01*
X20757Y249572D02*
X41169Y229161D01*
Y124477D02*
Y229161D01*
Y124477D02*
X50800Y114847D01*
X64508D02*
X72205Y107149D01*
Y97788D02*
Y107149D01*
Y97788D02*
X81299Y88694D01*
X50800Y114847D02*
X64508D01*
X60580Y259415D02*
X81300Y238695D01*
X20757Y259415D02*
X60580D01*
X131202Y137493D02*
Y153198D01*
Y137493D02*
X131500Y137195D01*
X130850Y153550D02*
X131202Y153198D01*
X51100Y231700D02*
X62400D01*
X50493Y175154D02*
X57346D01*
X62500Y170000D01*
X44700Y225300D02*
X51100Y231700D01*
X44700Y180946D02*
Y225300D01*
Y180946D02*
X50493Y175154D01*
X116500Y115600D02*
Y116900D01*
Y99006D02*
Y115600D01*
X92800Y87097D02*
Y138600D01*
X119237Y72800D02*
X120300Y71737D01*
X104100Y64000D02*
X120163D01*
X97000Y88200D02*
X97150Y88050D01*
X116500Y116900D02*
Y137195D01*
X146550Y87450D02*
Y98956D01*
Y87450D02*
X146600Y87400D01*
X146500Y99006D02*
X146550Y98956D01*
X156400Y86000D02*
Y98905D01*
X156500Y99006D01*
X156300Y85900D02*
X156400Y86000D01*
X156550Y99055D02*
Y108250D01*
X156500Y99006D02*
X156550Y99055D01*
Y108250D02*
X156600Y108300D01*
X73300Y51200D02*
Y73600D01*
X100600Y159286D02*
X110900Y169586D01*
X89150Y89691D02*
Y151922D01*
X109064Y171836D01*
X87872Y153700D02*
X88172Y154000D01*
X88400D01*
X116500Y182100D01*
X73200Y153700D02*
X87872D01*
X100600Y129200D02*
Y159286D01*
X109064Y171836D02*
X137136D01*
X92800Y138600D02*
X92900Y138700D01*
X82999Y83540D02*
X89150Y89691D01*
X92800Y87097D02*
X95447Y84450D01*
X121714Y169586D02*
X124200Y167100D01*
X110900Y169586D02*
X121714D01*
X124200Y162037D02*
X124537Y161700D01*
X124200Y162037D02*
Y167100D01*
X124737Y161500D02*
X139757D01*
X124537Y161700D02*
X124737Y161500D01*
X75240Y83540D02*
X82999D01*
X103600Y91800D02*
X103900Y91500D01*
X68100Y76400D02*
X75240Y83540D01*
X68100Y58746D02*
Y76400D01*
X64200Y54847D02*
X68100Y58746D01*
X57346Y54847D02*
X64200D01*
X120163Y64000D02*
X120300Y63863D01*
X214600Y225300D02*
X272700Y167200D01*
X214600Y225300D02*
Y238500D01*
X212700Y197200D02*
Y207200D01*
X267547Y142353D02*
X274400D01*
X212700Y197200D02*
X267547Y142353D01*
X274400D02*
X276754Y140000D01*
X292500D01*
X238400Y211500D02*
X272700Y177200D01*
X238400Y211500D02*
Y234700D01*
X239953Y238450D02*
X255782Y222621D01*
Y204118D02*
X272700Y187200D01*
X255782Y204118D02*
Y222621D01*
X226300Y238400D02*
X226350Y238450D01*
X239953D01*
X70800Y157700D02*
Y191700D01*
X68395Y148895D02*
X73200Y153700D01*
X68395Y125895D02*
Y148895D01*
X62500Y120000D02*
X68395Y125895D01*
X52500Y50000D02*
X57346Y54847D01*
X116500Y182100D02*
Y190305D01*
X146500Y181200D02*
Y190305D01*
X137136Y171836D02*
X146500Y181200D01*
X136450Y137244D02*
X136500Y137195D01*
X136450Y137244D02*
Y147550D01*
X136400Y147600D02*
X136450Y147550D01*
X62500Y200000D02*
X70800Y191700D01*
X146500Y137195D02*
Y149100D01*
X163440Y127400D02*
X185100D01*
X185300Y127200D01*
X156500Y134340D02*
X163440Y127400D01*
X156500Y134340D02*
Y137195D01*
X81405Y248800D02*
X106300D01*
X116500Y228495D02*
Y238600D01*
X106300Y248800D02*
X116500Y238600D01*
X266100Y247400D02*
X266800Y246700D01*
X176909Y106774D02*
X177500D01*
X136400Y99106D02*
Y107500D01*
Y99106D02*
X136500Y99006D01*
X136300Y107600D02*
X136400Y107500D01*
X126500Y137195D02*
X126550Y137144D01*
Y128350D02*
X126600Y128300D01*
X126550Y128350D02*
Y137144D01*
X161500Y210800D02*
Y228495D01*
X156700Y206000D02*
X161500Y210800D01*
X156700Y190506D02*
Y206000D01*
X116581Y161618D02*
X116663Y161700D01*
X116581Y137276D02*
Y161618D01*
X116500Y137195D02*
X116581Y137276D01*
X136500Y181700D02*
Y190305D01*
X57346Y204847D02*
X78294D01*
X52500Y200000D02*
X57346Y204847D01*
X78294D02*
X79292Y203849D01*
X97300Y212695D02*
X136305D01*
X81300Y228695D02*
X97300Y212695D01*
X136305D02*
X151500Y197500D01*
X87765Y218695D02*
X95765Y210695D01*
X146450Y219150D02*
Y228445D01*
X146400Y219100D02*
X146450Y219150D01*
Y228445D02*
X146500Y228495D01*
X136400Y228395D02*
X136500Y228495D01*
X136400Y220000D02*
Y228395D01*
X136300Y219900D02*
X136400Y220000D01*
X151500Y190305D02*
Y197500D01*
X126500Y219800D02*
Y228495D01*
X121650Y228644D02*
Y238050D01*
X121500Y228495D02*
X121650Y228644D01*
Y238050D02*
X121800Y238200D01*
X161500Y228495D02*
Y251900D01*
X161600Y252000D01*
X156500Y190305D02*
X156700Y190506D01*
X131500Y238200D02*
X131700Y238000D01*
Y228695D02*
Y238000D01*
X131500Y228495D02*
X131700Y228695D01*
X151200Y238900D02*
X151350Y238750D01*
Y228644D02*
X151500Y228495D01*
X151350Y228644D02*
Y238750D01*
X141400Y228594D02*
Y238600D01*
Y228594D02*
X141500Y228495D01*
X141300Y238700D02*
X141400Y238600D01*
X121500Y228495D02*
X121600Y228395D01*
X81300Y218695D02*
X87765D01*
X81300Y248695D02*
X81405Y248800D01*
X16502Y90000D02*
X22500D01*
Y93999D01*
X18501Y96998D02*
Y98997D01*
X19501Y99997D01*
X22500D01*
Y96998D01*
X21500Y95998D01*
X20501Y96998D01*
Y99997D01*
X22500Y101996D02*
X18501D01*
Y104995D01*
X19501Y105995D01*
X22500D01*
X16502Y111993D02*
X22500D01*
Y108994D01*
X21500Y107994D01*
X19501D01*
X18501Y108994D01*
Y111993D01*
X22500Y113992D02*
Y115992D01*
Y114992D01*
X18501D01*
Y113992D01*
X22500Y124989D02*
X18501D01*
X16502Y126988D01*
X18501Y128987D01*
X22500D01*
X19501D01*
Y124989D01*
X22500Y130987D02*
X18501D01*
Y133986D01*
X19501Y134985D01*
X22500D01*
X16502Y140983D02*
X22500D01*
Y137985D01*
X21500Y136985D01*
X19501D01*
X18501Y137985D01*
Y140983D01*
Y142983D02*
X22500D01*
X20501D01*
X19501Y143983D01*
X18501Y144982D01*
Y145982D01*
Y149981D02*
Y151980D01*
X19501Y152980D01*
X22500D01*
Y149981D01*
X21500Y148981D01*
X20501Y149981D01*
Y152980D01*
X22500Y154979D02*
Y157978D01*
X21500Y158978D01*
X20501Y157978D01*
Y155979D01*
X19501Y154979D01*
X18501Y155979D01*
Y158978D01*
D30*
X97837Y48300D02*
D03*
X89963D02*
D03*
X169474Y252000D02*
D03*
X161600D02*
D03*
X116663Y161700D02*
D03*
X124537D02*
D03*
X120074Y48299D02*
D03*
X112200D02*
D03*
D31*
X93651Y67740D02*
D03*
X104100Y71480D02*
D03*
Y64000D02*
D03*
D32*
X131500Y137195D02*
D03*
X116500Y190305D02*
D03*
X121500D02*
D03*
X126500D02*
D03*
X131500D02*
D03*
X136500D02*
D03*
X141500D02*
D03*
X146500D02*
D03*
X151500D02*
D03*
X156500D02*
D03*
X161500D02*
D03*
X116500Y228495D02*
D03*
X121500D02*
D03*
X126500D02*
D03*
X131500D02*
D03*
X136500D02*
D03*
X141500D02*
D03*
X146500D02*
D03*
X151500D02*
D03*
X156500D02*
D03*
X161500D02*
D03*
X116500Y99006D02*
D03*
X121500D02*
D03*
X126500D02*
D03*
X131500D02*
D03*
X136500D02*
D03*
X141500D02*
D03*
X146500D02*
D03*
X151500D02*
D03*
X156500D02*
D03*
X161500D02*
D03*
X116500Y137195D02*
D03*
X121500D02*
D03*
X126500D02*
D03*
X136500D02*
D03*
X141500D02*
D03*
X146500D02*
D03*
X151500D02*
D03*
X156500D02*
D03*
X161500D02*
D03*
D33*
X266100Y247400D02*
D03*
X249100D02*
D03*
D34*
X176300Y198137D02*
D03*
Y190263D02*
D03*
X177500Y98900D02*
D03*
Y106774D02*
D03*
X120300Y71737D02*
D03*
Y63863D02*
D03*
D35*
X267110Y267500D02*
D03*
X249000D02*
D03*
D36*
X176300Y190263D02*
X195200D01*
X249050Y247450D02*
X249100Y247400D01*
X248500Y248000D02*
X249050Y247450D01*
X195600Y248000D02*
X248500D01*
X184300Y98900D02*
X195600Y110200D01*
Y248000D01*
X177500Y98900D02*
X184300D01*
X81299Y78694D02*
X168394D01*
X177500Y87800D02*
Y98900D01*
X168394Y78694D02*
X177500Y87800D01*
X177394Y99006D02*
X177500Y98900D01*
X177600Y252000D02*
X181600Y248000D01*
X195600D01*
X163500Y259300D02*
X169006Y253795D01*
Y252468D02*
X169474Y252000D01*
X81300Y258695D02*
X81905Y259300D01*
X163500D01*
X169006Y252468D02*
Y253795D01*
X169474Y252000D02*
X177600D01*
X249050Y247450D02*
Y267450D01*
X169474Y214174D02*
Y251410D01*
X249100Y235100D02*
X261100Y223100D01*
X280443D01*
X249100Y235100D02*
Y247400D01*
X286118Y196382D02*
Y217425D01*
X161500Y99006D02*
X177394D01*
X286118Y196382D02*
X292500Y190000D01*
X280443Y223100D02*
X286118Y217425D01*
X266800Y246700D02*
X301700D01*
X249000Y267500D02*
X249050Y267450D01*
X161500Y190305D02*
Y206200D01*
X169474Y214174D01*
D37*
X20757Y259415D02*
D03*
Y249572D02*
D03*
Y269257D02*
D03*
D38*
X81300Y258695D02*
D03*
X212700Y207200D02*
D03*
D39*
X81300Y248695D02*
D03*
Y238695D02*
D03*
Y228695D02*
D03*
X81300Y218695D02*
D03*
Y208695D02*
D03*
Y198695D02*
D03*
Y188695D02*
D03*
X81299Y178695D02*
D03*
Y168695D02*
D03*
Y158695D02*
D03*
Y148695D02*
D03*
X81299Y138694D02*
D03*
Y128694D02*
D03*
Y118694D02*
D03*
Y108694D02*
D03*
X81299Y98694D02*
D03*
Y88694D02*
D03*
Y78694D02*
D03*
Y68694D02*
D03*
X302500Y190000D02*
D03*
Y200000D02*
D03*
Y170000D02*
D03*
Y180000D02*
D03*
Y120000D02*
D03*
Y130000D02*
D03*
Y110000D02*
D03*
Y150000D02*
D03*
Y160000D02*
D03*
Y140000D02*
D03*
X292500Y170000D02*
D03*
Y180000D02*
D03*
Y160000D02*
D03*
Y200000D02*
D03*
Y210000D02*
D03*
Y190000D02*
D03*
Y120000D02*
D03*
Y130000D02*
D03*
Y110000D02*
D03*
Y150000D02*
D03*
X62500D02*
D03*
X292500Y140000D02*
D03*
X302500Y70000D02*
D03*
Y80000D02*
D03*
Y90000D02*
D03*
Y30000D02*
D03*
Y40000D02*
D03*
Y20000D02*
D03*
Y50000D02*
D03*
Y60000D02*
D03*
Y100000D02*
D03*
X292500Y90000D02*
D03*
Y80000D02*
D03*
Y100000D02*
D03*
Y30000D02*
D03*
Y40000D02*
D03*
Y20000D02*
D03*
Y60000D02*
D03*
Y70000D02*
D03*
Y50000D02*
D03*
X62500Y190000D02*
D03*
Y200000D02*
D03*
Y180000D02*
D03*
Y120000D02*
D03*
Y130000D02*
D03*
Y110000D02*
D03*
Y160000D02*
D03*
Y170000D02*
D03*
Y140000D02*
D03*
X52500Y180000D02*
D03*
Y170000D02*
D03*
Y200000D02*
D03*
Y210000D02*
D03*
Y190000D02*
D03*
Y120000D02*
D03*
Y130000D02*
D03*
Y110000D02*
D03*
Y150000D02*
D03*
Y160000D02*
D03*
Y140000D02*
D03*
X62500Y70000D02*
D03*
Y80000D02*
D03*
Y60000D02*
D03*
Y90000D02*
D03*
Y30000D02*
D03*
Y40000D02*
D03*
Y20000D02*
D03*
Y50000D02*
D03*
Y100000D02*
D03*
X52500Y90000D02*
D03*
Y80000D02*
D03*
Y100000D02*
D03*
Y30000D02*
D03*
Y40000D02*
D03*
Y20000D02*
D03*
Y60000D02*
D03*
Y70000D02*
D03*
Y50000D02*
D03*
X272700Y177200D02*
D03*
Y187200D02*
D03*
Y197200D02*
D03*
Y207200D02*
D03*
Y167200D02*
D03*
Y157200D02*
D03*
Y147200D02*
D03*
Y137200D02*
D03*
Y127200D02*
D03*
Y117200D02*
D03*
Y107200D02*
D03*
Y97200D02*
D03*
X212700Y97200D02*
D03*
Y107200D02*
D03*
Y117200D02*
D03*
Y127200D02*
D03*
Y137200D02*
D03*
Y147200D02*
D03*
Y157200D02*
D03*
Y167200D02*
D03*
Y197200D02*
D03*
Y187200D02*
D03*
Y177200D02*
D03*
D40*
X276969Y301491D02*
D03*
Y25900D02*
D03*
X81300Y301491D02*
D03*
Y25900D02*
D03*
D41*
X301700Y246700D02*
D03*
X314200Y266700D02*
D03*
X326700Y246700D02*
D03*
D42*
X302500Y210000D02*
D03*
X62500D02*
D03*
D43*
X20000Y299213D02*
D03*
X335000D02*
D03*
Y20000D02*
D03*
X20000D02*
D03*
D44*
X156300Y218700D02*
D03*
X151350Y111759D02*
D03*
X130850Y153550D02*
D03*
X97000Y88200D02*
D03*
X146600Y87400D02*
D03*
X156300Y85900D02*
D03*
X73300Y73600D02*
D03*
X156600Y108300D02*
D03*
X92900Y138700D02*
D03*
X100600Y129200D02*
D03*
X103600Y91800D02*
D03*
X214600Y238500D02*
D03*
X226300Y238400D02*
D03*
X238400Y234700D02*
D03*
X70800Y157700D02*
D03*
X136400Y147600D02*
D03*
X146500Y149100D02*
D03*
X172900Y136700D02*
D03*
X255200Y85800D02*
D03*
X185300Y127200D02*
D03*
X136300Y107600D02*
D03*
X126600Y128300D02*
D03*
X136500Y181700D02*
D03*
X146400Y219100D02*
D03*
X136300Y219900D02*
D03*
X126500Y219800D02*
D03*
X121800Y238200D02*
D03*
X131500D02*
D03*
X151200Y238900D02*
D03*
X141300Y238700D02*
D03*
D45*
X176000Y173300D02*
D03*
M02*
